<svg width="1584" height="322" viewBox="0 0 1584 322" fill="none" xmlns="http://www.w3.org/2000/svg">
<g clip-path="url(#clip0_10_48)">
<rect width="1584" height="322" fill="#FFFAEB"/>
<circle cx="240" cy="160" r="116.5" fill="#81B29A" stroke="#525893" stroke-width="7"/>
<path d="M212.665 208.28L189.753 140.184C188.302 135.661 187.15 132.12 186.297 129.56C185.443 126.915 184.803 124.653 184.377 122.776C183.182 122.861 181.987 122.904 180.793 122.904C179.598 122.904 178.403 122.947 177.209 123.032V117.4H208.312V121.624C203.363 121.88 200.377 122.989 199.353 124.952C198.414 126.915 198.627 130.456 199.993 135.576C201.443 141.208 203.022 146.285 204.729 150.808C206.435 155.331 208.099 160.195 209.721 165.4C210.915 169.24 212.11 172.781 213.305 176.024C214.585 179.267 215.865 182.893 217.145 186.904H217.401C217.827 185.453 218.254 183.917 218.681 182.296C219.193 180.675 219.705 179.096 220.217 177.56C220.729 176.024 221.198 174.616 221.625 173.336C222.051 171.971 222.393 170.861 222.649 170.008C225.038 162.413 227.385 155.075 229.689 147.992C232.078 140.824 234.169 134.552 235.961 129.176C237.753 123.715 238.99 119.704 239.673 117.144H243.769C244.537 119.96 245.646 123.544 247.097 127.896C248.547 132.248 250.083 136.813 251.705 141.592C253.326 146.371 254.819 150.893 256.185 155.16C257.635 159.427 258.787 162.84 259.641 165.4C260.835 169.24 262.073 173.037 263.353 176.792C264.718 180.547 265.955 184.429 267.065 188.44H267.449C268.217 185.965 269.027 183.32 269.881 180.504C270.819 177.688 271.758 174.829 272.697 171.928C274.915 165.613 276.707 160.323 278.073 156.056C279.523 151.789 280.675 148.248 281.529 145.432C282.467 142.616 283.235 140.184 283.833 138.136C284.515 136.003 285.198 133.955 285.881 131.992C286.393 130.541 286.947 129.005 287.545 127.384C288.227 125.677 288.995 124.099 289.849 122.648C288.142 122.733 286.435 122.819 284.729 122.904C283.022 122.904 281.315 122.947 279.609 123.032V117.4H305.592V121.624C302.691 121.965 300.387 122.605 298.681 123.544C297.059 124.483 295.609 126.232 294.329 128.792C293.049 131.352 291.513 135.277 289.721 140.568C285.795 152.173 281.955 163.608 278.201 174.872C274.531 186.051 270.691 197.187 266.681 208.28H262.841L243.385 152.728C242.617 150.509 241.849 148.333 241.081 146.2C240.398 144.067 239.673 141.933 238.905 139.8C238.222 141.933 237.497 144.067 236.729 146.2C236.046 148.333 235.363 150.467 234.681 152.6L216.377 208.28H212.665Z" fill="#FFFAEB"/>
<g clip-path="url(#clip1_10_48)">
<path d="M199.194 242.149L199.194 242.149C199.195 242.149 199.195 242.149 199.194 242.149Z" fill="#E33A25"/>
<path d="M283.684 235.059C283.601 234.77 283.518 234.481 283.432 234.194L286.327 230.001C286.622 229.575 286.683 229.02 286.49 228.534C286.298 228.05 285.878 227.703 285.381 227.618L280.486 226.787C280.297 226.4 280.098 226.019 279.899 225.641L281.955 220.934C282.166 220.454 282.122 219.896 281.841 219.461C281.562 219.024 281.087 218.769 280.582 218.788L275.615 218.969C275.358 218.634 275.096 218.302 274.83 217.976L275.971 212.931C276.087 212.418 275.941 211.882 275.584 211.51C275.229 211.139 274.714 210.985 274.223 211.106L269.385 212.295C269.072 212.018 268.753 211.745 268.431 211.477L268.605 206.297C268.624 205.772 268.38 205.274 267.96 204.983C267.54 204.69 267.008 204.646 266.549 204.864L262.035 207.009C261.672 206.801 261.306 206.594 260.937 206.395L260.139 201.29C260.059 200.773 259.726 200.333 259.26 200.133C258.795 199.931 258.263 199.996 257.855 200.303L253.831 203.323C253.435 203.191 253.037 203.065 252.634 202.944L250.899 198.103C250.723 197.61 250.316 197.248 249.82 197.146C249.326 197.045 248.817 197.216 248.475 197.599L245.088 201.388C244.678 201.341 244.268 201.298 243.857 201.263L241.242 196.856C240.977 196.41 240.509 196.138 240.005 196.138C239.502 196.138 239.033 196.41 238.77 196.856L236.154 201.263C235.743 201.298 235.331 201.341 234.922 201.388L231.535 197.599C231.192 197.216 230.681 197.045 230.189 197.146C229.693 197.249 229.286 197.61 229.11 198.103L227.374 202.944C226.972 203.065 226.574 203.192 226.177 203.323L222.154 200.303C221.745 199.995 221.213 199.93 220.747 200.133C220.283 200.333 219.949 200.773 219.869 201.29L219.071 206.395C218.701 206.594 218.336 206.8 217.971 207.009L213.458 204.864C213 204.645 212.465 204.69 212.048 204.983C211.628 205.274 211.383 205.772 211.402 206.297L211.576 211.477C211.254 211.745 210.937 212.018 210.622 212.295L205.784 211.106C205.293 210.986 204.778 211.139 204.422 211.51C204.064 211.882 203.919 212.418 204.034 212.931L205.174 217.976C204.909 218.303 204.648 218.634 204.391 218.969L199.424 218.788C198.923 218.774 198.444 219.024 198.164 219.461C197.884 219.896 197.841 220.454 198.05 220.934L200.108 225.641C199.908 226.019 199.709 226.4 199.518 226.787L194.624 227.618C194.127 227.702 193.708 228.049 193.514 228.534C193.322 229.02 193.385 229.575 193.678 230.001L196.573 234.194C196.551 234.268 196.53 234.343 196.508 234.417L194.917 236.107L199.194 242.149C199.194 242.149 240.243 261.085 278.32 242.469C282.67 241.689 283.684 235.059 283.684 235.059Z" fill="#E07A5F"/>
<path d="M247.383 231.649C247.383 231.649 251.926 226.675 256.468 231.649C256.468 231.649 260.038 238.282 256.468 241.598C256.468 241.598 250.628 246.24 247.383 241.598C247.383 241.598 243.489 237.95 247.383 231.649Z" fill="#030404"/>
<path d="M252.642 233.494C252.642 235.431 251.501 237.002 250.092 237.002C248.685 237.002 247.543 235.431 247.543 233.494C247.543 231.557 248.685 229.987 250.092 229.987C251.501 229.987 252.642 231.557 252.642 233.494Z" fill="white"/>
<path d="M227.107 230.291C227.107 230.291 234.9 226.841 237.027 234.542C237.027 234.542 239.255 243.518 230.627 244.024C230.627 244.024 219.626 241.906 227.107 230.291Z" fill="#030404"/>
<path d="M231.021 233.621C231.021 235.619 229.844 237.239 228.391 237.239C226.94 237.239 225.762 235.619 225.762 233.621C225.762 231.624 226.94 230.004 228.391 230.004C229.844 230.004 231.021 231.624 231.021 233.621Z" fill="white"/>
<path d="M200.528 243.201C201.562 242.025 204.076 240.601 203.883 238.835C203.539 235.672 200.916 233.364 198.025 233.679C197.308 233.757 196.642 233.989 196.051 234.342C196.008 234.332 195.964 234.323 195.92 234.315C195.92 234.315 186.145 239.114 191.717 248.715C191.769 249.2 202.834 263.4 205.941 264.481C207.975 265.189 204.063 252.346 200.528 243.201Z" fill="#E07A5F"/>
<path d="M279.951 242.772C278.753 241.763 275.596 240.846 275.525 239.071C275.397 235.892 277.648 233.22 280.554 233.103C281.274 233.074 281.967 233.205 282.604 233.467C282.646 233.451 282.687 233.435 282.729 233.42C282.729 233.42 293.108 236.717 289.021 247.039C289.041 247.526 280.204 263.209 277.291 264.739C275.385 265.74 277.811 252.341 279.951 242.772Z" fill="#E07A5F"/>
<path d="M208.031 242.856C208.031 242.856 207.901 255.807 220.593 258.697L223.239 253.38C223.239 253.38 214.042 254.27 213.335 242.856H208.031Z" fill="#E07A5F"/>
<path d="M272.67 242.856C272.67 242.856 272.8 255.807 260.108 258.697L257.461 253.38C257.461 253.38 266.658 254.27 267.366 242.856H272.67Z" fill="#E07A5F"/>
<path d="M263.501 256.065C261.591 251.449 255.426 249.616 249.733 251.971C244.721 254.045 241.749 258.672 242.41 262.899C246.367 262.838 250.612 262.581 254.743 261.983C254.743 261.983 252.306 265.922 248.719 269.36C251.131 269.983 253.944 269.81 256.65 268.69C262.344 266.335 265.411 260.682 263.501 256.065Z" fill="#E07A5F"/>
<path d="M228.181 261.762C228.181 261.762 233.388 262.451 240.507 262.626C241.131 258.144 237.736 253.401 232.319 251.566C226.335 249.539 220.151 251.83 218.507 256.682C216.864 261.535 220.382 267.112 226.367 269.139C229.019 270.037 231.711 270.087 234.029 269.441C230.547 265.998 228.181 261.762 228.181 261.762Z" fill="#E07A5F"/>
</g>
<path d="M1439.8 284.719C1440.09 285.352 1440.72 285.814 1441.49 285.939L1448.98 287.159C1449.26 287.666 1449.55 288.166 1449.85 288.662L1446.59 294.703C1446.25 295.319 1446.3 296.042 1446.72 296.614C1447.14 297.189 1447.86 297.534 1448.64 297.523L1456.27 297.435C1456.66 297.877 1457.05 298.315 1457.45 298.745L1455.58 305.251C1455.39 305.912 1455.6 306.612 1456.14 307.104C1456.67 307.595 1457.46 307.809 1458.22 307.668L1465.67 306.268C1466.15 306.636 1466.63 307 1467.12 307.356L1466.73 314.065C1466.69 314.744 1467.05 315.398 1467.69 315.787C1468.32 316.179 1469.14 316.252 1469.85 315.983L1476.83 313.334C1477.38 313.615 1477.94 313.894 1478.5 314.163L1479.6 320.803C1479.71 321.476 1480.21 322.055 1480.92 322.329C1481.63 322.603 1482.45 322.534 1483.08 322.148L1489.33 318.353C1489.94 318.535 1490.54 318.71 1491.16 318.879L1493.71 325.203C1493.97 325.848 1494.58 326.33 1495.34 326.476C1496.1 326.622 1496.88 326.415 1497.42 325.929L1502.71 321.116C1503.33 321.189 1503.96 321.257 1504.59 321.315L1508.5 327.103C1508.9 327.689 1509.61 328.055 1510.38 328.07C1511.15 328.085 1511.88 327.746 1512.29 327.176L1516.41 321.541C1517.05 321.507 1517.68 321.463 1518.31 321.414L1523.42 326.425C1523.93 326.931 1524.71 327.168 1525.47 327.052C1526.23 326.933 1526.87 326.476 1527.15 325.842L1529.93 319.619C1530.55 319.474 1531.16 319.321 1531.77 319.164L1537.88 323.195C1538.5 323.606 1539.31 323.706 1540.03 323.457C1540.75 323.211 1541.27 322.651 1541.41 321.983L1542.75 315.39C1543.33 315.142 1543.89 314.887 1544.46 314.626L1551.33 317.539C1552.03 317.836 1552.85 317.793 1553.5 317.425C1554.15 317.061 1554.54 316.422 1554.52 315.742L1554.38 309.022C1554.88 308.685 1555.37 308.34 1555.86 307.99L1563.26 309.674C1564.01 309.843 1564.8 309.66 1565.36 309.19C1565.92 308.718 1566.15 308.027 1565.99 307.359L1564.36 300.786C1564.77 300.37 1565.18 299.949 1565.58 299.523L1573.2 299.902C1573.97 299.936 1574.71 299.625 1575.15 299.066C1575.59 298.511 1575.67 297.79 1575.36 297.162L1572.31 291C1572.63 290.516 1572.94 290.028 1573.25 289.532L1580.78 288.599C1581.54 288.505 1582.19 288.067 1582.5 287.444C1582.81 286.819 1582.73 286.099 1582.29 285.537L1577.94 280.017C1577.98 279.923 1577.59 274.253 1574.11 269.631C1574.11 269.631 1574.08 269.619 1574.02 269.597C1566.11 258.404 1541.47 249.9 1512.15 249.34C1481.14 248.748 1455.03 257.238 1448.3 269.137C1445.3 272.185 1444.54 277.2 1444.63 277.473L1440.09 282.823C1439.63 283.367 1439.52 284.083 1439.8 284.719Z" fill="#8F1F1D"/>
<path d="M1593 260.767C1592.69 259.884 1589.49 260.109 1588.69 259.954L1576.99 260.058C1576.69 259.352 1576.37 258.656 1576.05 257.966L1583.63 246.227C1583.97 245.351 1585.84 244.123 1585.4 243.329C1584.95 242.531 1582.08 243.598 1581.27 243.634L1569.19 245.788C1568.78 245.177 1568.36 244.571 1567.93 243.976L1574.71 228.839C1574.89 227.904 1576.96 224.104 1576.39 223.425C1575.82 222.747 1573.13 225.035 1572.35 225.255L1559.21 233.606C1558.71 233.101 1558.2 232.602 1557.69 232.113L1561.41 219.001C1561.44 218.045 1563.43 213.508 1562.75 212.977C1562.08 212.443 1559.78 214.487 1559.05 214.884L1547.44 223.958C1546.86 223.578 1546.28 223.201 1545.68 222.836L1548.45 207.334C1548.32 206.389 1549.44 201.447 1548.7 201.08C1547.95 200.712 1544.05 205.019 1543.39 205.58L1534.3 217.229C1533.67 216.989 1533.03 216.758 1532.39 216.538L1531.53 198.945C1531.24 198.044 1531.31 194.86 1530.52 194.674C1529.73 194.49 1528.71 197.331 1528.16 198.029L1520.3 213.698C1519.65 213.612 1518.99 213.534 1518.33 213.469L1514.36 195.438C1513.93 194.623 1513.48 191.93 1512.67 191.93C1511.87 191.93 1511.24 195.157 1510.82 195.971L1506 213.47C1505.34 213.534 1504.68 213.613 1504.03 213.699L1497.19 197.802C1496.64 197.103 1495.7 193.652 1494.91 193.836C1494.12 194.024 1494.27 196.596 1493.99 197.497L1491.94 216.539C1491.29 216.759 1490.66 216.991 1490.02 217.23L1483.8 209.241C1483.15 208.678 1479.5 203.151 1478.75 203.521C1478.01 203.887 1478.54 209.669 1478.41 210.613L1478.64 222.837C1478.05 223.201 1477.46 223.576 1476.88 223.959L1465.54 213.359C1464.8 212.96 1463.26 211.299 1462.59 211.833C1461.92 212.365 1462.48 214.766 1462.51 215.723L1466.64 232.113C1466.12 232.602 1465.62 233.101 1465.11 233.606L1452.66 225.865C1451.87 225.648 1449.44 223.739 1448.87 224.417C1448.3 225.096 1449.61 225.811 1449.8 226.747L1456.39 243.977C1455.96 244.573 1455.54 245.177 1455.13 245.788L1434.83 238.906C1434.02 238.879 1431.81 237.803 1431.36 238.601C1430.91 239.395 1432.8 240.547 1433.13 241.423L1448.28 257.967C1447.95 258.657 1447.64 259.352 1447.33 260.059L1432.63 258.276C1431.83 258.429 1429.74 258.001 1429.43 258.886C1429.12 259.774 1431.15 260.925 1431.62 261.703L1442.61 273.578C1442.58 273.713 1443.1 281.685 1446.81 288.097C1446.81 288.097 1446.84 288.113 1446.9 288.143C1455.37 303.687 1481.23 314.997 1511.82 314.997C1544.18 314.997 1571.25 302.344 1578.04 285.411C1581.11 281.04 1581.81 273.959 1581.71 273.578L1590.64 263.919C1591.12 263.14 1593.31 261.655 1593 260.767V260.767Z" fill="#8F1F1D"/>
<path d="M1448.59 273.725C1448.59 273.725 1431.71 276.154 1427.91 276.996C1424.11 277.837 1426.65 278.477 1427.91 278.678C1432.32 279.379 1454.08 279.94 1454.5 280.08C1454.92 280.221 1448.59 273.725 1448.59 273.725Z" fill="#8F1F1D"/>
<path d="M1573.41 274.907C1573.41 274.907 1590.29 277.335 1594.09 278.177C1597.89 279.018 1595.35 279.659 1594.09 279.859C1589.68 280.561 1567.92 281.121 1567.5 281.262C1567.08 281.402 1573.41 274.907 1573.41 274.907V274.907Z" fill="#8F1F1D"/>
<path d="M1488.61 274.977C1488.61 274.977 1481.29 266.941 1473.97 274.977C1473.97 274.977 1468.21 285.693 1473.97 291.05C1473.97 291.05 1483.38 298.551 1488.61 291.05C1488.61 291.05 1494.88 285.156 1488.61 274.977V274.977Z" fill="black"/>
<path d="M1474 277.958C1474 281.087 1475.84 283.624 1478.11 283.624C1480.38 283.624 1482.22 281.088 1482.22 277.958C1482.22 274.829 1480.38 272.292 1478.11 272.292C1475.84 272.292 1474 274.829 1474 277.958V277.958Z" fill="white"/>
<path d="M1529.62 272.027C1529.62 272.027 1517.06 266.453 1513.64 278.894C1513.64 278.894 1510.05 293.396 1523.95 294.215C1523.95 294.215 1541.68 290.791 1529.62 272.027Z" fill="black"/>
<path d="M1516 277.408C1516 280.635 1517.9 283.252 1520.24 283.252C1522.58 283.252 1524.47 280.635 1524.47 277.408C1524.47 274.18 1522.58 271.564 1520.24 271.564C1517.9 271.564 1516 274.18 1516 277.408Z" fill="white"/>
<path d="M455.352 184.28L432.44 116.184C430.989 111.661 429.837 108.12 428.984 105.56C428.131 102.915 427.491 100.653 427.064 98.776C425.869 98.8613 424.675 98.904 423.48 98.904C422.285 98.904 421.091 98.9467 419.896 99.032V93.4H451V97.624C446.051 97.88 443.064 98.9893 442.04 100.952C441.101 102.915 441.315 106.456 442.68 111.576C444.131 117.208 445.709 122.285 447.416 126.808C449.123 131.331 450.787 136.195 452.408 141.4C453.603 145.24 454.797 148.781 455.992 152.024C457.272 155.267 458.552 158.893 459.832 162.904H460.088C460.515 161.453 460.941 159.917 461.368 158.296C461.88 156.675 462.392 155.096 462.904 153.56C463.416 152.024 463.885 150.616 464.312 149.336C464.739 147.971 465.08 146.861 465.336 146.008C467.725 138.413 470.072 131.075 472.376 123.992C474.765 116.824 476.856 110.552 478.648 105.176C480.44 99.7147 481.677 95.704 482.36 93.144H486.456C487.224 95.96 488.333 99.544 489.784 103.896C491.235 108.248 492.771 112.813 494.392 117.592C496.013 122.371 497.507 126.893 498.872 131.16C500.323 135.427 501.475 138.84 502.328 141.4C503.523 145.24 504.76 149.037 506.04 152.792C507.405 156.547 508.643 160.429 509.752 164.44H510.136C510.904 161.965 511.715 159.32 512.568 156.504C513.507 153.688 514.445 150.829 515.384 147.928C517.603 141.613 519.395 136.323 520.76 132.056C522.211 127.789 523.363 124.248 524.216 121.432C525.155 118.616 525.923 116.184 526.52 114.136C527.203 112.003 527.885 109.955 528.568 107.992C529.08 106.541 529.635 105.005 530.232 103.384C530.915 101.677 531.683 100.099 532.536 98.648C530.829 98.7333 529.123 98.8187 527.416 98.904C525.709 98.904 524.003 98.9467 522.296 99.032V93.4H548.28V97.624C545.379 97.9653 543.075 98.6053 541.368 99.544C539.747 100.483 538.296 102.232 537.016 104.792C535.736 107.352 534.2 111.277 532.408 116.568C528.483 128.173 524.643 139.608 520.888 150.872C517.219 162.051 513.379 173.187 509.368 184.28H505.528L486.072 128.728C485.304 126.509 484.536 124.333 483.768 122.2C483.085 120.067 482.36 117.933 481.592 115.8C480.909 117.933 480.184 120.067 479.416 122.2C478.733 124.333 478.051 126.467 477.368 128.6L459.064 184.28H455.352ZM553.415 178.776C556.658 178.605 558.876 177.88 560.071 176.6C561.266 175.235 561.906 173.4 561.991 171.096C562.162 168.707 562.247 166.019 562.247 163.032V107.736C562.247 106.029 562.29 104.408 562.375 102.872C562.46 101.251 562.546 99.8 562.631 98.52C561.095 98.6053 559.559 98.6907 558.023 98.776C556.487 98.8613 554.951 98.9467 553.415 99.032V93.4C557.938 93.3147 562.588 93.272 567.367 93.272C572.146 93.1867 577.01 93.144 581.959 93.144C590.236 93.144 597.191 94.0827 602.823 95.96C608.455 97.8373 612.764 100.611 615.751 104.28C618.738 107.949 620.359 112.515 620.615 117.976C620.786 121.304 620.274 124.803 619.079 128.472C617.97 132.056 615.836 135.469 612.679 138.712C609.607 141.869 605.255 144.429 599.623 146.392C593.991 148.355 586.78 149.336 577.991 149.336C577.65 149.336 577.01 149.336 576.071 149.336C575.132 149.336 574.236 149.293 573.383 149.208V167.768C573.383 170.072 573.34 172.077 573.255 173.784C573.255 175.405 573.17 176.771 572.999 177.88C574.364 177.795 575.687 177.709 576.967 177.624C578.247 177.539 579.527 177.496 580.807 177.496C582.172 177.411 583.495 177.325 584.775 177.24V183H553.415V178.776ZM573.383 143.96C575.004 144.131 576.37 144.259 577.479 144.344C578.674 144.344 580.082 144.344 581.703 144.344C586.567 144.344 591.004 143.405 595.015 141.528C599.026 139.565 602.226 136.792 604.615 133.208C607.004 129.624 608.199 125.357 608.199 120.408C608.199 116.397 607.559 112.984 606.279 110.168C604.999 107.267 603.164 104.963 600.775 103.256C598.471 101.464 595.698 100.184 592.455 99.416C589.212 98.5627 585.628 98.136 581.703 98.136C578.716 98.136 576.626 98.776 575.431 100.056C574.322 101.336 573.682 103.128 573.511 105.432C573.426 107.651 573.383 110.296 573.383 113.368V143.96ZM659.215 97.624C656.058 97.7093 653.839 98.4347 652.559 99.8C651.364 101.165 650.682 103 650.511 105.304C650.426 107.608 650.383 110.296 650.383 113.368V167.768C650.383 170.072 650.34 172.077 650.255 173.784C650.255 175.405 650.17 176.771 649.999 177.88C651.535 177.795 653.071 177.709 654.607 177.624C656.143 177.539 657.679 177.453 659.215 177.368V183H630.415V178.776C633.658 178.605 635.876 177.88 637.071 176.6C638.266 175.235 638.906 173.4 638.991 171.096C639.162 168.707 639.247 166.019 639.247 163.032V107.736C639.247 106.029 639.29 104.408 639.375 102.872C639.46 101.251 639.546 99.8 639.631 98.52C638.095 98.6053 636.559 98.6907 635.023 98.776C633.487 98.8613 631.951 98.9467 630.415 99.032V93.4H659.215V97.624ZM673.29 183V178.776C676.533 178.605 678.751 177.88 679.946 176.6C681.141 175.235 681.781 173.4 681.866 171.096C682.037 168.707 682.122 166.019 682.122 163.032V107.736C682.122 106.029 682.165 104.408 682.25 102.872C682.335 101.251 682.421 99.8 682.506 98.52C680.97 98.6053 679.434 98.6907 677.898 98.776C676.362 98.8613 674.826 98.9467 673.29 99.032V93.4H702.09V97.624C698.933 97.7093 696.714 98.4347 695.434 99.8C694.239 101.165 693.557 103 693.386 105.304C693.301 107.608 693.258 110.296 693.258 113.368V168.28C693.258 170.584 693.215 172.547 693.13 174.168C693.13 175.789 693.045 177.155 692.874 178.264L716.81 177.88C722.186 177.795 726.239 176.088 728.97 172.76C731.786 169.432 733.194 164.013 733.194 156.504H737.546L736.778 183H673.29ZM745.882 179.16C748.527 179.16 750.362 178.52 751.386 177.24C752.41 175.875 753.007 174.04 753.178 171.736C753.349 169.347 753.434 166.616 753.434 163.544V134.36C753.434 132.995 753.477 131.715 753.562 130.52C753.647 129.24 753.775 127.747 753.946 126.04C752.41 126.125 750.874 126.211 749.338 126.296C747.887 126.381 746.394 126.467 744.858 126.552V121.176C748.613 121.176 751.514 121.005 753.562 120.664C755.61 120.323 757.146 119.896 758.17 119.384C759.279 118.872 760.133 118.317 760.73 117.72H764.442V169.432C764.442 171.139 764.399 172.675 764.314 174.04C764.314 175.32 764.186 176.685 763.93 178.136C765.295 178.051 766.618 178.008 767.898 178.008C769.263 177.923 770.629 177.837 771.994 177.752V183H745.882V179.16ZM758.298 105.048C756.506 105.048 754.927 104.323 753.562 102.872C752.197 101.421 751.514 99.6293 751.514 97.496C751.514 95.3627 752.197 93.5707 753.562 92.12C755.013 90.584 756.634 89.816 758.426 89.816C760.389 89.816 762.01 90.584 763.29 92.12C764.655 93.5707 765.338 95.3627 765.338 97.496C765.338 99.6293 764.613 101.421 763.162 102.872C761.797 104.323 760.175 105.048 758.298 105.048ZM787.978 103C787.978 101.635 787.978 100.355 787.978 99.16C788.063 97.88 788.191 96.3867 788.362 94.68C786.826 94.7653 785.29 94.8507 783.754 94.936C782.303 95.0213 780.81 95.1067 779.274 95.192V89.816C783.029 89.816 785.93 89.6453 787.978 89.304C790.111 88.9627 791.69 88.536 792.714 88.024C793.823 87.512 794.677 86.9573 795.274 86.36H798.986V124.504C801.375 122.115 804.191 120.28 807.434 119C810.762 117.635 814.389 116.952 818.314 116.952C823.775 116.952 828.682 118.275 833.034 120.92C837.471 123.565 840.97 127.32 843.53 132.184C846.09 137.048 847.37 142.808 847.37 149.464C847.37 156.717 845.791 163.032 842.634 168.408C839.477 173.699 835.381 177.795 830.346 180.696C825.311 183.597 819.893 185.048 814.09 185.048C811.189 185.048 807.989 184.493 804.49 183.384C801.077 182.36 798.005 180.312 795.274 177.24L792.202 183H787.722L787.978 103ZM798.986 162.904C798.986 167.427 799.711 170.925 801.162 173.4C802.613 175.789 804.49 177.453 806.794 178.392C809.098 179.331 811.53 179.8 814.09 179.8C818.186 179.8 821.727 178.648 824.714 176.344C827.701 174.04 830.005 170.883 831.626 166.872C833.333 162.776 834.186 158.04 834.186 152.664C834.186 146.861 833.461 141.784 832.01 137.432C830.559 132.995 828.383 129.539 825.482 127.064C822.581 124.504 818.911 123.224 814.474 123.224C811.658 123.224 808.842 123.907 806.026 125.272C803.295 126.552 800.949 128.301 798.986 130.52V162.904ZM861.326 146.52V137.56H906.766V146.008L861.326 146.52ZM921.007 179.16C923.652 179.16 925.487 178.52 926.511 177.24C927.535 175.875 928.132 174.04 928.303 171.736C928.474 169.347 928.559 166.616 928.559 163.544V134.36C928.559 132.995 928.559 131.629 928.559 130.264C928.644 128.899 928.815 127.491 929.071 126.04C927.535 126.125 925.999 126.211 924.463 126.296C923.012 126.296 921.519 126.339 919.983 126.424V121.176H923.951C927.62 121.176 930.138 120.835 931.503 120.152C932.954 119.384 934.148 118.573 935.087 117.72H938.799C938.97 119.085 939.098 120.792 939.183 122.84C939.268 124.803 939.354 127.32 939.439 130.392C940.719 128.259 942.468 126.168 944.687 124.12C946.906 122.072 949.38 120.365 952.111 119C954.927 117.635 957.871 116.952 960.943 116.952C963.332 116.952 965.423 117.592 967.215 118.872C969.007 120.152 969.903 122.2 969.903 125.016C969.903 125.699 969.69 126.552 969.263 127.576C968.836 128.515 968.154 129.368 967.215 130.136C966.276 130.819 965.039 131.16 963.503 131.16C961.626 131.075 960.132 130.349 959.023 128.984C957.914 127.533 957.487 125.869 957.743 123.992C955.61 123.907 953.391 124.461 951.087 125.656C948.868 126.851 946.778 128.515 944.815 130.648C942.852 132.696 941.103 135.128 939.567 137.944L939.695 169.432C939.695 171.139 939.652 172.675 939.567 174.04C939.567 175.32 939.439 176.685 939.183 178.136C940.548 178.051 941.871 178.008 943.151 178.008C944.516 177.923 945.882 177.837 947.247 177.752V183H921.007V179.16ZM1002.62 185.048C998.355 185.048 994.558 184.451 991.23 183.256C987.902 182.147 985.171 180.867 983.038 179.416L983.55 183.896H978.174L977.406 161.88H981.374C981.545 165.379 982.526 168.536 984.318 171.352C986.11 174.083 988.414 176.216 991.23 177.752C994.046 179.288 997.075 180.056 1000.32 180.056C1002.54 180.056 1004.71 179.715 1006.85 179.032C1008.98 178.264 1010.77 177.155 1012.22 175.704C1013.67 174.168 1014.4 172.248 1014.4 169.944C1014.4 167.555 1013.67 165.592 1012.22 164.056C1010.86 162.435 1009.02 161.027 1006.72 159.832C1004.41 158.637 1001.94 157.528 999.294 156.504C996.734 155.48 994.174 154.413 991.614 153.304C989.054 152.195 986.665 150.872 984.446 149.336C982.313 147.8 980.606 145.923 979.326 143.704C978.046 141.485 977.406 138.755 977.406 135.512C977.406 133.72 977.747 131.757 978.43 129.624C979.113 127.491 980.265 125.485 981.886 123.608C983.507 121.645 985.726 120.067 988.542 118.872C991.358 117.592 994.942 116.952 999.294 116.952C1001.6 116.952 1004.16 117.336 1006.97 118.104C1009.79 118.872 1012.52 120.323 1015.17 122.456L1014.91 117.592H1020.29V139.992H1016.19C1016.02 137.005 1015.34 134.147 1014.14 131.416C1012.95 128.6 1011.2 126.296 1008.89 124.504C1006.59 122.627 1003.6 121.688 999.934 121.688C996.009 121.688 992.937 122.669 990.718 124.632C988.499 126.595 987.39 128.856 987.39 131.416C987.39 134.061 988.201 136.28 989.822 138.072C991.529 139.779 993.705 141.272 996.35 142.552C998.995 143.832 1001.81 145.069 1004.8 146.264C1008.04 147.629 1011.2 149.123 1014.27 150.744C1017.34 152.365 1019.86 154.413 1021.82 156.888C1023.78 159.277 1024.77 162.392 1024.77 166.232C1024.77 170.499 1023.66 174.04 1021.44 176.856C1019.3 179.672 1016.53 181.72 1013.12 183C1009.79 184.365 1006.29 185.048 1002.62 185.048Z" fill="black"/>
<path d="M443.416 230.68L444.216 231.416C443.555 232.291 442.957 233.219 442.424 234.2C441.912 235.16 441.464 236.163 441.08 237.208C440.696 238.232 440.376 239.299 440.12 240.408C439.885 241.517 439.704 242.659 439.576 243.832C439.448 244.984 439.384 246.157 439.384 247.352C439.384 248.547 439.448 249.72 439.576 250.872C439.704 252.003 439.885 253.101 440.12 254.168C440.376 255.235 440.696 256.269 441.08 257.272C441.464 258.296 441.912 259.277 442.424 260.216C442.957 261.155 443.555 262.061 444.216 262.936L443.416 263.672C442.627 262.947 441.805 262.019 440.952 260.888C440.099 259.779 439.309 258.509 438.584 257.08C437.859 255.651 437.272 254.115 436.824 252.472C436.376 250.829 436.152 249.123 436.152 247.352C436.152 245.581 436.376 243.853 436.824 242.168C437.272 240.483 437.859 238.904 438.584 237.432C439.309 235.96 440.099 234.648 440.952 233.496C441.805 232.344 442.627 231.405 443.416 230.68ZM452.098 255.512C450.946 255.512 449.975 255.299 449.186 254.872C448.418 254.445 447.831 253.72 447.426 252.696C447.042 251.672 446.85 250.285 446.85 248.536V242.84C446.85 242.499 446.85 242.157 446.85 241.816C446.871 241.475 446.914 241.123 446.978 240.76C446.615 240.781 446.242 240.803 445.858 240.824C445.495 240.824 445.132 240.835 444.77 240.856V239.544H445.762C446.679 239.544 447.34 239.459 447.746 239.288C448.172 239.096 448.503 238.893 448.738 238.68H449.666V248.44C449.666 250.275 449.922 251.651 450.434 252.568C450.967 253.464 451.863 253.901 453.122 253.88C453.932 253.859 454.7 253.613 455.426 253.144C456.172 252.653 456.77 252.077 457.218 251.416V243.192C457.218 242.68 457.228 242.243 457.25 241.88C457.271 241.496 457.314 241.123 457.378 240.76C456.994 240.781 456.61 240.803 456.226 240.824C455.842 240.824 455.458 240.835 455.074 240.856V239.544H456.066C456.983 239.544 457.644 239.459 458.05 239.288C458.476 239.096 458.807 238.893 459.042 238.68H459.97L459.938 250.776C459.938 251.117 459.927 251.597 459.906 252.216C459.884 252.835 459.852 253.357 459.81 253.784C460.194 253.763 460.578 253.741 460.962 253.72C461.346 253.699 461.73 253.677 462.114 253.656V255H457.538C457.474 254.637 457.42 254.296 457.378 253.976C457.356 253.656 457.335 253.357 457.314 253.08C456.652 253.741 455.852 254.317 454.914 254.808C453.975 255.277 453.036 255.512 452.098 255.512ZM464.439 255V254.04C465.101 254.04 465.559 253.88 465.815 253.56C466.071 253.219 466.221 252.76 466.263 252.184C466.306 251.587 466.327 250.904 466.327 250.136L466.359 242.84C466.359 242.499 466.359 242.157 466.359 241.816C466.381 241.475 466.423 241.123 466.487 240.76C466.103 240.781 465.719 240.803 465.335 240.824C464.973 240.845 464.599 240.867 464.215 240.888V239.544C465.154 239.544 465.858 239.501 466.327 239.416C466.818 239.331 467.181 239.224 467.415 239.096C467.65 238.968 467.842 238.829 467.991 238.68H468.919C468.941 238.829 468.951 239 468.951 239.192C468.973 239.384 468.994 239.597 469.015 239.832C469.037 240.067 469.047 240.333 469.047 240.632C469.517 240.227 470.029 239.864 470.583 239.544C471.159 239.224 471.757 238.968 472.375 238.776C473.015 238.584 473.645 238.488 474.263 238.488C476.119 238.488 477.474 239.075 478.327 240.248C479.181 241.4 479.607 243.203 479.607 245.656V251.608C479.607 252.035 479.597 252.419 479.575 252.76C479.575 253.08 479.543 253.421 479.479 253.784C479.821 253.763 480.151 253.752 480.471 253.752C480.813 253.731 481.154 253.709 481.495 253.688V255H474.967V254.04C475.629 254.04 476.087 253.88 476.343 253.56C476.599 253.219 476.749 252.76 476.791 252.184C476.834 251.587 476.855 250.904 476.855 250.136V245.656C476.834 243.821 476.525 242.435 475.927 241.496C475.351 240.557 474.434 240.099 473.175 240.12C472.407 240.141 471.65 240.344 470.903 240.728C470.178 241.112 469.57 241.603 469.079 242.2C469.101 242.371 469.111 242.563 469.111 242.776C469.111 242.989 469.111 243.213 469.111 243.448L469.079 251.608C469.079 252.035 469.069 252.419 469.047 252.76C469.047 253.08 469.015 253.421 468.951 253.784C469.293 253.763 469.623 253.752 469.943 253.752C470.285 253.731 470.626 253.709 470.967 253.688V255H464.439ZM493.605 255C493.541 254.637 493.498 254.317 493.477 254.04C493.455 253.763 493.423 253.475 493.381 253.176C492.655 253.901 491.866 254.477 491.013 254.904C490.181 255.309 489.295 255.512 488.357 255.512C486.735 255.512 485.53 255.149 484.741 254.424C483.951 253.677 483.557 252.771 483.557 251.704C483.557 250.723 483.855 249.88 484.453 249.176C485.071 248.451 485.861 247.864 486.821 247.416C487.802 246.947 488.858 246.605 489.989 246.392C491.141 246.157 492.25 246.051 493.317 246.072V244.088C493.317 243.341 493.253 242.637 493.125 241.976C492.997 241.315 492.719 240.771 492.293 240.344C491.866 239.917 491.183 239.693 490.245 239.672C489.626 239.651 488.986 239.768 488.325 240.024C487.685 240.28 487.215 240.717 486.917 241.336C487.087 241.507 487.194 241.709 487.237 241.944C487.301 242.157 487.333 242.36 487.333 242.552C487.333 242.808 487.226 243.107 487.013 243.448C486.799 243.768 486.426 243.917 485.893 243.896C485.445 243.896 485.103 243.747 484.869 243.448C484.634 243.128 484.517 242.755 484.517 242.328C484.517 241.603 484.783 240.952 485.317 240.376C485.871 239.8 486.629 239.341 487.589 239C488.549 238.659 489.637 238.488 490.853 238.488C492.645 238.488 493.967 238.968 494.821 239.928C495.674 240.867 496.09 242.36 496.069 244.408C496.069 245.197 496.069 245.997 496.069 246.808C496.069 247.597 496.058 248.397 496.037 249.208C496.037 249.997 496.037 250.797 496.037 251.608C496.037 251.949 496.026 252.291 496.005 252.632C495.983 252.973 495.951 253.357 495.909 253.784C496.293 253.763 496.666 253.741 497.029 253.72C497.413 253.699 497.797 253.677 498.181 253.656V255H493.605ZM493.317 247.16C492.591 247.181 491.823 247.277 491.013 247.448C490.223 247.597 489.487 247.832 488.805 248.152C488.143 248.472 487.599 248.899 487.173 249.432C486.767 249.944 486.575 250.573 486.597 251.32C486.639 252.109 486.895 252.707 487.365 253.112C487.855 253.496 488.431 253.688 489.093 253.688C489.967 253.688 490.725 253.528 491.365 253.208C492.026 252.867 492.677 252.397 493.317 251.8C493.295 251.565 493.285 251.309 493.285 251.032C493.285 250.755 493.285 250.467 493.285 250.168C493.285 250.061 493.285 249.72 493.285 249.144C493.306 248.568 493.317 247.907 493.317 247.16ZM502.393 238.328C502.393 235.96 502.819 234.093 503.673 232.728C504.547 231.363 506.041 230.68 508.153 230.68C508.622 230.68 509.113 230.765 509.625 230.936C510.158 231.085 510.617 231.341 511.001 231.704C511.385 232.045 511.577 232.493 511.577 233.048C511.577 233.453 511.459 233.795 511.225 234.072C511.011 234.349 510.691 234.488 510.265 234.488C509.753 234.509 509.39 234.36 509.177 234.04C508.985 233.699 508.889 233.411 508.889 233.176C508.889 233.048 508.899 232.92 508.921 232.792C508.942 232.664 508.985 232.525 509.049 232.376C508.899 232.184 508.686 232.045 508.409 231.96C508.153 231.875 507.907 231.832 507.673 231.832C507.011 231.832 506.499 232.024 506.137 232.408C505.774 232.792 505.518 233.272 505.369 233.848C505.219 234.424 505.145 235.021 505.145 235.64V239H509.465V240.248L505.145 240.344L505.177 251.608C505.177 252.035 505.166 252.419 505.145 252.76C505.145 253.08 505.113 253.421 505.049 253.784C505.39 253.763 505.721 253.752 506.041 253.752C506.382 253.731 506.723 253.709 507.065 253.688V255H500.537V254.04C501.198 254.04 501.657 253.88 501.913 253.56C502.169 253.219 502.318 252.76 502.361 252.184C502.403 251.587 502.425 250.904 502.425 250.136L502.393 240.376L499.769 240.44V239H502.393V238.328ZM511.694 255V254.04C512.355 254.04 512.814 253.88 513.07 253.56C513.326 253.219 513.475 252.76 513.518 252.184C513.56 251.587 513.582 250.904 513.582 250.136L513.518 240.376L510.894 240.44V239H513.518C513.518 236.333 514.158 234.285 515.438 232.856C516.739 231.405 518.584 230.68 520.974 230.68C522.083 230.68 523.086 230.797 523.982 231.032C524.899 231.267 525.635 231.597 526.19 232.024C526.744 232.451 527.022 232.941 527.022 233.496C527.022 233.901 526.904 234.253 526.67 234.552C526.435 234.851 526.094 235 525.646 235C525.112 235.021 524.739 234.872 524.526 234.552C524.312 234.211 524.206 233.912 524.206 233.656C524.206 233.507 524.216 233.357 524.238 233.208C524.259 233.059 524.302 232.92 524.366 232.792C524.003 232.515 523.555 232.301 523.022 232.152C522.51 231.981 521.912 231.896 521.23 231.896C520.27 231.896 519.416 232.109 518.67 232.536C517.923 232.963 517.336 233.613 516.91 234.488C516.483 235.363 516.27 236.472 516.27 237.816V239H523.598C524.088 239 524.504 238.989 524.846 238.968C525.208 238.925 525.496 238.883 525.71 238.84C525.923 238.776 526.051 238.723 526.094 238.68H527.022V251.608C527.022 252.035 527.011 252.419 526.99 252.76C526.99 253.08 526.958 253.421 526.894 253.784C527.235 253.763 527.566 253.752 527.886 253.752C528.227 253.731 528.568 253.709 528.91 253.688V255H522.382V254.04C523.043 254.04 523.502 253.88 523.758 253.56C524.014 253.219 524.163 252.76 524.206 252.184C524.248 251.587 524.27 250.904 524.27 250.136V242.2C524.27 241.859 524.28 241.539 524.302 241.24C524.323 240.92 524.355 240.547 524.398 240.12L516.27 240.312L516.302 251.64C516.302 252.067 516.291 252.44 516.27 252.76C516.27 253.08 516.238 253.421 516.174 253.784C516.515 253.763 516.846 253.752 517.166 253.752C517.507 253.731 517.848 253.709 518.19 253.688V255H511.694ZM531.119 254.04C531.781 254.04 532.239 253.88 532.495 253.56C532.751 253.219 532.901 252.76 532.943 252.184C532.986 251.587 533.007 250.904 533.007 250.136V235C533.007 234.659 533.007 234.339 533.007 234.04C533.029 233.72 533.061 233.347 533.103 232.92C532.719 232.941 532.335 232.963 531.951 232.984C531.589 233.005 531.215 233.027 530.831 233.048V231.704C531.77 231.704 532.495 231.661 533.007 231.576C533.541 231.491 533.935 231.384 534.191 231.256C534.469 231.128 534.682 230.989 534.831 230.84H535.759L535.791 251.608C535.791 252.035 535.781 252.419 535.759 252.76C535.738 253.08 535.695 253.421 535.631 253.784C535.973 253.763 536.303 253.752 536.623 253.752C536.965 253.731 537.306 253.709 537.647 253.688V255H531.119V254.04ZM540.158 254.04C540.819 254.04 541.278 253.88 541.534 253.56C541.79 253.219 541.939 252.76 541.982 252.184C542.025 251.587 542.046 250.904 542.046 250.136V242.84C542.046 242.499 542.057 242.179 542.078 241.88C542.099 241.56 542.131 241.187 542.174 240.76C541.79 240.781 541.406 240.803 541.022 240.824C540.659 240.845 540.286 240.867 539.902 240.888V239.544C540.841 239.544 541.566 239.501 542.078 239.416C542.59 239.331 542.974 239.224 543.23 239.096C543.507 238.968 543.721 238.829 543.87 238.68H544.798V251.608C544.798 252.035 544.787 252.419 544.766 252.76C544.766 253.08 544.734 253.421 544.67 253.784C545.011 253.763 545.342 253.752 545.662 253.752C546.003 253.731 546.345 253.709 546.686 253.688V255H540.158V254.04ZM543.262 235.512C542.814 235.512 542.419 235.331 542.078 234.968C541.737 234.605 541.566 234.157 541.566 233.624C541.566 233.091 541.737 232.643 542.078 232.28C542.441 231.896 542.846 231.704 543.294 231.704C543.785 231.704 544.19 231.896 544.51 232.28C544.851 232.643 545.022 233.091 545.022 233.624C545.022 234.157 544.841 234.605 544.478 234.968C544.137 235.331 543.731 235.512 543.262 235.512ZM558.886 255C558.822 254.637 558.779 254.317 558.758 254.04C558.737 253.763 558.705 253.475 558.662 253.176C557.937 253.901 557.147 254.477 556.294 254.904C555.462 255.309 554.577 255.512 553.638 255.512C552.017 255.512 550.811 255.149 550.022 254.424C549.233 253.677 548.838 252.771 548.838 251.704C548.838 250.723 549.137 249.88 549.734 249.176C550.353 248.451 551.142 247.864 552.102 247.416C553.083 246.947 554.139 246.605 555.27 246.392C556.422 246.157 557.531 246.051 558.598 246.072V244.088C558.598 243.341 558.534 242.637 558.406 241.976C558.278 241.315 558.001 240.771 557.574 240.344C557.147 239.917 556.465 239.693 555.526 239.672C554.907 239.651 554.267 239.768 553.606 240.024C552.966 240.28 552.497 240.717 552.198 241.336C552.369 241.507 552.475 241.709 552.518 241.944C552.582 242.157 552.614 242.36 552.614 242.552C552.614 242.808 552.507 243.107 552.294 243.448C552.081 243.768 551.707 243.917 551.174 243.896C550.726 243.896 550.385 243.747 550.15 243.448C549.915 243.128 549.798 242.755 549.798 242.328C549.798 241.603 550.065 240.952 550.598 240.376C551.153 239.8 551.91 239.341 552.87 239C553.83 238.659 554.918 238.488 556.134 238.488C557.926 238.488 559.249 238.968 560.102 239.928C560.955 240.867 561.371 242.36 561.35 244.408C561.35 245.197 561.35 245.997 561.35 246.808C561.35 247.597 561.339 248.397 561.318 249.208C561.318 249.997 561.318 250.797 561.318 251.608C561.318 251.949 561.307 252.291 561.286 252.632C561.265 252.973 561.233 253.357 561.19 253.784C561.574 253.763 561.947 253.741 562.31 253.72C562.694 253.699 563.078 253.677 563.462 253.656V255H558.886ZM558.598 247.16C557.873 247.181 557.105 247.277 556.294 247.448C555.505 247.597 554.769 247.832 554.086 248.152C553.425 248.472 552.881 248.899 552.454 249.432C552.049 249.944 551.857 250.573 551.878 251.32C551.921 252.109 552.177 252.707 552.646 253.112C553.137 253.496 553.713 253.688 554.374 253.688C555.249 253.688 556.006 253.528 556.646 253.208C557.307 252.867 557.958 252.397 558.598 251.8C558.577 251.565 558.566 251.309 558.566 251.032C558.566 250.755 558.566 250.467 558.566 250.168C558.566 250.061 558.566 249.72 558.566 249.144C558.587 248.568 558.598 247.907 558.598 247.16ZM571.455 255.512C570.965 255.512 570.463 255.437 569.951 255.288C569.439 255.16 568.959 254.893 568.511 254.488C568.085 254.083 567.743 253.496 567.487 252.728C567.231 251.939 567.103 250.904 567.103 249.624L567.167 240.344L564.703 240.376V239C565.258 238.979 565.823 238.776 566.399 238.392C566.975 237.987 567.487 237.443 567.935 236.76C568.405 236.077 568.725 235.331 568.895 234.52H569.983V239H575.359V240.248L569.983 240.312L569.919 249.208C569.919 250.168 569.994 250.989 570.143 251.672C570.314 252.333 570.581 252.835 570.943 253.176C571.306 253.517 571.775 253.688 572.351 253.688C572.949 253.688 573.503 253.517 574.015 253.176C574.549 252.835 575.018 252.365 575.423 251.768L576.287 252.472C575.818 253.176 575.349 253.731 574.879 254.136C574.431 254.541 573.994 254.84 573.567 255.032C573.141 255.245 572.746 255.373 572.383 255.416C572.021 255.48 571.711 255.512 571.455 255.512ZM585.558 255.512C584.086 255.512 582.753 255.171 581.558 254.488C580.385 253.784 579.457 252.803 578.774 251.544C578.092 250.264 577.75 248.76 577.75 247.032C577.75 245.539 578.081 244.141 578.742 242.84C579.425 241.539 580.374 240.493 581.59 239.704C582.806 238.893 584.214 238.488 585.814 238.488C586.71 238.488 587.542 238.637 588.31 238.936C589.1 239.213 589.793 239.651 590.39 240.248C590.988 240.824 591.457 241.56 591.798 242.456C592.14 243.331 592.31 244.365 592.31 245.56L581.046 245.752C581.046 247.373 581.217 248.803 581.558 250.04C581.921 251.256 582.497 252.205 583.286 252.888C584.076 253.549 585.089 253.88 586.326 253.88C586.988 253.88 587.66 253.763 588.342 253.528C589.046 253.293 589.697 252.973 590.294 252.568C590.892 252.163 591.372 251.715 591.734 251.224L592.502 251.864C591.926 252.76 591.233 253.475 590.422 254.008C589.612 254.541 588.78 254.925 587.926 255.16C587.073 255.395 586.284 255.512 585.558 255.512ZM581.142 244.408H589.302C589.302 243.64 589.185 242.904 588.95 242.2C588.737 241.475 588.374 240.888 587.862 240.44C587.35 239.971 586.678 239.736 585.846 239.736C584.609 239.736 583.574 240.109 582.742 240.856C581.932 241.581 581.398 242.765 581.142 244.408ZM601.85 255.512C600.548 255.512 599.375 255.192 598.33 254.552C597.284 253.891 596.452 252.952 595.834 251.736C595.236 250.52 594.938 249.091 594.938 247.448C594.938 245.699 595.29 244.152 595.994 242.808C596.698 241.464 597.668 240.408 598.906 239.64C600.164 238.872 601.583 238.488 603.162 238.488C603.866 238.488 604.559 238.584 605.242 238.776C605.946 238.947 606.5 239.149 606.906 239.384V235C606.906 234.659 606.906 234.339 606.906 234.04C606.927 233.72 606.959 233.347 607.002 232.92C606.618 232.941 606.234 232.963 605.85 232.984C605.487 233.005 605.114 233.027 604.73 233.048V231.704C605.668 231.704 606.394 231.661 606.906 231.576C607.418 231.491 607.802 231.384 608.058 231.256C608.335 231.128 608.548 230.989 608.698 230.84H609.626V251.608C609.626 251.949 609.615 252.291 609.594 252.632C609.572 252.973 609.54 253.357 609.498 253.784C609.882 253.763 610.255 253.741 610.618 253.72C611.002 253.699 611.386 253.677 611.77 253.656V255H607.194C607.13 254.68 607.076 254.392 607.034 254.136C607.012 253.859 606.991 253.592 606.97 253.336C606.372 253.997 605.636 254.531 604.762 254.936C603.887 255.32 602.916 255.512 601.85 255.512ZM603.002 253.944C603.706 253.944 604.41 253.741 605.114 253.336C605.839 252.931 606.436 252.429 606.906 251.832C606.884 251.576 606.874 251.309 606.874 251.032C606.874 250.733 606.874 250.413 606.874 250.072L606.906 240.856C606.394 240.472 605.828 240.195 605.21 240.024C604.612 239.832 603.994 239.736 603.354 239.736C602.287 239.736 601.359 240.045 600.57 240.664C599.78 241.283 599.183 242.147 598.778 243.256C598.372 244.365 598.191 245.667 598.234 247.16C598.276 248.461 598.479 249.624 598.842 250.648C599.226 251.672 599.759 252.483 600.442 253.08C601.146 253.656 601.999 253.944 603.002 253.944ZM628.037 255.096L623.845 242.808C623.696 242.36 623.557 241.976 623.429 241.656C623.322 241.336 623.237 241.059 623.173 240.824C623.109 240.589 623.056 240.387 623.013 240.216L621.317 240.312V239H628.101V239.96C627.141 239.981 626.608 240.312 626.501 240.952C626.416 241.571 626.544 242.392 626.885 243.416L628.357 247.896C628.528 248.408 628.698 248.931 628.869 249.464C629.04 249.976 629.21 250.488 629.381 251C629.573 250.424 629.765 249.848 629.957 249.272C630.17 248.675 630.373 248.077 630.565 247.48L633.413 239H634.725L637.957 248.312C638.128 248.781 638.298 249.261 638.469 249.752C638.64 250.243 638.81 250.733 638.981 251.224C639.152 250.755 639.312 250.296 639.461 249.848C639.632 249.379 639.792 248.909 639.941 248.44L642.053 242.36C642.202 241.933 642.352 241.528 642.501 241.144C642.65 240.76 642.821 240.451 643.013 240.216L641.157 240.312V239H646.725V239.96C646.17 239.981 645.712 240.056 645.349 240.184C645.008 240.312 644.72 240.483 644.485 240.696C644.25 240.909 644.058 241.165 643.909 241.464C643.76 241.763 643.621 242.104 643.493 242.488L638.885 255.096H637.605L634.565 246.36C634.437 245.976 634.309 245.603 634.181 245.24C634.053 244.856 633.925 244.483 633.797 244.12C633.669 243.736 633.541 243.363 633.413 243C633.285 243.363 633.157 243.736 633.029 244.12C632.901 244.483 632.773 244.856 632.645 245.24C632.517 245.603 632.389 245.976 632.261 246.36L629.253 255.096H628.037ZM648.158 254.04C648.819 254.04 649.278 253.88 649.534 253.56C649.79 253.219 649.939 252.76 649.982 252.184C650.025 251.587 650.046 250.904 650.046 250.136V242.84C650.046 242.499 650.057 242.179 650.078 241.88C650.099 241.56 650.131 241.187 650.174 240.76C649.79 240.781 649.406 240.803 649.022 240.824C648.659 240.845 648.286 240.867 647.902 240.888V239.544C648.841 239.544 649.566 239.501 650.078 239.416C650.59 239.331 650.974 239.224 651.23 239.096C651.507 238.968 651.721 238.829 651.87 238.68H652.798V251.608C652.798 252.035 652.787 252.419 652.766 252.76C652.766 253.08 652.734 253.421 652.67 253.784C653.011 253.763 653.342 253.752 653.662 253.752C654.003 253.731 654.345 253.709 654.686 253.688V255H648.158V254.04ZM651.262 235.512C650.814 235.512 650.419 235.331 650.078 234.968C649.737 234.605 649.566 234.157 649.566 233.624C649.566 233.091 649.737 232.643 650.078 232.28C650.441 231.896 650.846 231.704 651.294 231.704C651.785 231.704 652.19 231.896 652.51 232.28C652.851 232.643 653.022 233.091 653.022 233.624C653.022 234.157 652.841 234.605 652.478 234.968C652.137 235.331 651.731 235.512 651.262 235.512ZM663.674 255.512C663.183 255.512 662.682 255.437 662.17 255.288C661.658 255.16 661.178 254.893 660.73 254.488C660.303 254.083 659.962 253.496 659.706 252.728C659.45 251.939 659.322 250.904 659.322 249.624L659.386 240.344L656.922 240.376V239C657.477 238.979 658.042 238.776 658.618 238.392C659.194 237.987 659.706 237.443 660.154 236.76C660.623 236.077 660.943 235.331 661.114 234.52H662.202V239H667.578V240.248L662.202 240.312L662.138 249.208C662.138 250.168 662.213 250.989 662.362 251.672C662.533 252.333 662.799 252.835 663.162 253.176C663.525 253.517 663.994 253.688 664.57 253.688C665.167 253.688 665.722 253.517 666.234 253.176C666.767 252.835 667.237 252.365 667.642 251.768L668.506 252.472C668.037 253.176 667.567 253.731 667.098 254.136C666.65 254.541 666.213 254.84 665.786 255.032C665.359 255.245 664.965 255.373 664.602 255.416C664.239 255.48 663.93 255.512 663.674 255.512ZM680.305 254.04C680.966 254.04 681.425 253.88 681.681 253.56C681.937 253.219 682.086 252.76 682.129 252.184C682.172 251.587 682.193 250.904 682.193 250.136V245.656C682.193 243.821 681.894 242.445 681.297 241.528C680.721 240.611 679.804 240.163 678.545 240.184C677.756 240.205 676.977 240.397 676.209 240.76C675.462 241.123 674.854 241.592 674.385 242.168V251.608C674.385 252.035 674.374 252.419 674.353 252.76C674.332 253.08 674.289 253.421 674.225 253.784C674.566 253.763 674.897 253.752 675.217 253.752C675.558 253.731 675.9 253.709 676.241 253.688V255H669.713V254.04C670.374 254.04 670.833 253.88 671.089 253.56C671.345 253.219 671.494 252.76 671.537 252.184C671.601 251.587 671.633 250.904 671.633 250.136V235C671.633 234.659 671.633 234.339 671.633 234.04C671.654 233.72 671.686 233.347 671.729 232.92C671.345 232.941 670.961 232.963 670.577 232.984C670.214 233.005 669.841 233.027 669.457 233.048V231.704C670.396 231.704 671.121 231.661 671.633 231.576C672.166 231.491 672.561 231.384 672.817 231.256C673.094 231.128 673.308 230.989 673.457 230.84H674.385V240.6C674.854 240.195 675.377 239.843 675.953 239.544C676.55 239.224 677.158 238.968 677.777 238.776C678.417 238.584 679.036 238.488 679.633 238.488C681.489 238.488 682.822 239.075 683.633 240.248C684.465 241.4 684.892 243.203 684.913 245.656L684.945 251.608C684.945 252.035 684.934 252.419 684.913 252.76C684.913 253.08 684.881 253.421 684.817 253.784C685.158 253.763 685.489 253.752 685.809 253.752C686.15 253.731 686.492 253.709 686.833 253.688V255H680.305V254.04ZM705.276 255.32L699.548 238.296C699.185 237.165 698.897 236.28 698.684 235.64C698.47 234.979 698.31 234.413 698.204 233.944C697.905 233.965 697.606 233.976 697.308 233.976C697.009 233.976 696.71 233.987 696.412 234.008V232.6H704.188V233.656C702.95 233.72 702.204 233.997 701.948 234.488C701.713 234.979 701.766 235.864 702.108 237.144C702.47 238.552 702.865 239.821 703.292 240.952C703.718 242.083 704.134 243.299 704.54 244.6C704.838 245.56 705.137 246.445 705.436 247.256C705.756 248.067 706.076 248.973 706.396 249.976H706.46C706.566 249.613 706.673 249.229 706.78 248.824C706.908 248.419 707.036 248.024 707.164 247.64C707.292 247.256 707.409 246.904 707.516 246.584C707.622 246.243 707.708 245.965 707.772 245.752C708.369 243.853 708.956 242.019 709.532 240.248C710.129 238.456 710.652 236.888 711.1 235.544C711.548 234.179 711.857 233.176 712.028 232.536H713.052C713.244 233.24 713.521 234.136 713.884 235.224C714.246 236.312 714.63 237.453 715.036 238.648C715.441 239.843 715.814 240.973 716.156 242.04C716.518 243.107 716.806 243.96 717.02 244.6C717.318 245.56 717.628 246.509 717.948 247.448C718.289 248.387 718.598 249.357 718.876 250.36H718.972C719.164 249.741 719.366 249.08 719.58 248.376C719.814 247.672 720.049 246.957 720.284 246.232C720.838 244.653 721.286 243.331 721.628 242.264C721.99 241.197 722.278 240.312 722.492 239.608C722.726 238.904 722.918 238.296 723.068 237.784C723.238 237.251 723.409 236.739 723.58 236.248C723.708 235.885 723.846 235.501 723.996 235.096C724.166 234.669 724.358 234.275 724.572 233.912C724.145 233.933 723.718 233.955 723.292 233.976C722.865 233.976 722.438 233.987 722.012 234.008V232.6H728.507V233.656C727.782 233.741 727.206 233.901 726.78 234.136C726.374 234.371 726.012 234.808 725.692 235.448C725.372 236.088 724.988 237.069 724.54 238.392C723.558 241.293 722.598 244.152 721.66 246.968C720.742 249.763 719.782 252.547 718.78 255.32H717.82L712.956 241.432C712.764 240.877 712.572 240.333 712.38 239.8C712.209 239.267 712.028 238.733 711.836 238.2C711.665 238.733 711.484 239.267 711.292 239.8C711.121 240.333 710.95 240.867 710.78 241.4L706.204 255.32H705.276ZM729.791 253.944C730.602 253.901 731.157 253.72 731.455 253.4C731.754 253.059 731.914 252.6 731.935 252.024C731.978 251.427 731.999 250.755 731.999 250.008V236.184C731.999 235.757 732.01 235.352 732.031 234.968C732.053 234.563 732.074 234.2 732.095 233.88C731.711 233.901 731.327 233.923 730.943 233.944C730.559 233.965 730.175 233.987 729.791 234.008V232.6C730.922 232.579 732.085 232.568 733.279 232.568C734.474 232.547 735.69 232.536 736.927 232.536C738.997 232.536 740.735 232.771 742.143 233.24C743.551 233.709 744.629 234.403 745.375 235.32C746.122 236.237 746.527 237.379 746.591 238.744C746.634 239.576 746.506 240.451 746.207 241.368C745.93 242.264 745.397 243.117 744.607 243.928C743.839 244.717 742.751 245.357 741.343 245.848C739.935 246.339 738.133 246.584 735.935 246.584C735.85 246.584 735.69 246.584 735.455 246.584C735.221 246.584 734.997 246.573 734.783 246.552V251.192C734.783 251.768 734.773 252.269 734.751 252.696C734.751 253.101 734.73 253.443 734.687 253.72C735.029 253.699 735.359 253.677 735.679 253.656C735.999 253.635 736.319 253.624 736.639 253.624C736.981 253.603 737.311 253.581 737.631 253.56V255H729.791V253.944ZM734.783 245.24C735.189 245.283 735.53 245.315 735.807 245.336C736.106 245.336 736.458 245.336 736.863 245.336C738.079 245.336 739.189 245.101 740.191 244.632C741.194 244.141 741.994 243.448 742.591 242.552C743.189 241.656 743.487 240.589 743.487 239.352C743.487 238.349 743.327 237.496 743.007 236.792C742.687 236.067 742.229 235.491 741.631 235.064C741.055 234.616 740.362 234.296 739.551 234.104C738.741 233.891 737.845 233.784 736.863 233.784C736.117 233.784 735.594 233.944 735.295 234.264C735.018 234.584 734.858 235.032 734.815 235.608C734.794 236.163 734.783 236.824 734.783 237.592V245.24ZM756.241 233.656C755.452 233.677 754.897 233.859 754.577 234.2C754.279 234.541 754.108 235 754.065 235.576C754.044 236.152 754.033 236.824 754.033 237.592V251.192C754.033 251.768 754.023 252.269 754.001 252.696C754.001 253.101 753.98 253.443 753.937 253.72C754.321 253.699 754.705 253.677 755.089 253.656C755.473 253.635 755.857 253.613 756.241 253.592V255H749.041V253.944C749.852 253.901 750.407 253.72 750.705 253.4C751.004 253.059 751.164 252.6 751.185 252.024C751.228 251.427 751.249 250.755 751.249 250.008V236.184C751.249 235.757 751.26 235.352 751.281 234.968C751.303 234.563 751.324 234.2 751.345 233.88C750.961 233.901 750.577 233.923 750.193 233.944C749.809 233.965 749.425 233.987 749.041 234.008V232.6H756.241V233.656ZM759.76 255V253.944C760.571 253.901 761.125 253.72 761.424 253.4C761.723 253.059 761.883 252.6 761.904 252.024C761.947 251.427 761.968 250.755 761.968 250.008V236.184C761.968 235.757 761.979 235.352 762 234.968C762.021 234.563 762.043 234.2 762.064 233.88C761.68 233.901 761.296 233.923 760.912 233.944C760.528 233.965 760.144 233.987 759.76 234.008V232.6H766.96V233.656C766.171 233.677 765.616 233.859 765.296 234.2C764.997 234.541 764.827 235 764.784 235.576C764.763 236.152 764.752 236.824 764.752 237.592V251.32C764.752 251.896 764.741 252.387 764.72 252.792C764.72 253.197 764.699 253.539 764.656 253.816L770.64 253.72C771.984 253.699 772.997 253.272 773.68 252.44C774.384 251.608 774.736 250.253 774.736 248.376H775.824L775.632 255H759.76ZM777.908 254.04C778.569 254.04 779.028 253.88 779.284 253.56C779.54 253.219 779.689 252.76 779.732 252.184C779.775 251.587 779.796 250.904 779.796 250.136V242.84C779.796 242.499 779.807 242.179 779.828 241.88C779.849 241.56 779.881 241.187 779.924 240.76C779.54 240.781 779.156 240.803 778.772 240.824C778.409 240.845 778.036 240.867 777.652 240.888V239.544C778.591 239.544 779.316 239.501 779.828 239.416C780.34 239.331 780.724 239.224 780.98 239.096C781.257 238.968 781.471 238.829 781.62 238.68H782.548V251.608C782.548 252.035 782.537 252.419 782.516 252.76C782.516 253.08 782.484 253.421 782.42 253.784C782.761 253.763 783.092 253.752 783.412 253.752C783.753 253.731 784.095 253.709 784.436 253.688V255H777.908V254.04ZM781.012 235.512C780.564 235.512 780.169 235.331 779.828 234.968C779.487 234.605 779.316 234.157 779.316 233.624C779.316 233.091 779.487 232.643 779.828 232.28C780.191 231.896 780.596 231.704 781.044 231.704C781.535 231.704 781.94 231.896 782.26 232.28C782.601 232.643 782.772 233.091 782.772 233.624C782.772 234.157 782.591 234.605 782.228 234.968C781.887 235.331 781.481 235.512 781.012 235.512ZM788.432 235C788.432 234.659 788.432 234.339 788.432 234.04C788.453 233.72 788.485 233.347 788.528 232.92C788.144 232.941 787.76 232.963 787.376 232.984C787.013 233.005 786.64 233.027 786.256 233.048V231.704C787.195 231.704 787.92 231.661 788.432 231.576C788.965 231.491 789.36 231.384 789.616 231.256C789.893 231.128 790.107 230.989 790.256 230.84H791.184V240.376C791.781 239.779 792.485 239.32 793.296 239C794.128 238.659 795.035 238.488 796.016 238.488C797.381 238.488 798.608 238.819 799.696 239.48C800.805 240.141 801.68 241.08 802.32 242.296C802.96 243.512 803.28 244.952 803.28 246.616C803.28 248.429 802.885 250.008 802.096 251.352C801.307 252.675 800.283 253.699 799.024 254.424C797.765 255.149 796.411 255.512 794.96 255.512C794.235 255.512 793.435 255.373 792.56 255.096C791.707 254.84 790.939 254.328 790.256 253.56L789.488 255H788.368L788.432 235ZM791.184 249.976C791.184 251.107 791.365 251.981 791.728 252.6C792.091 253.197 792.56 253.613 793.136 253.848C793.712 254.083 794.32 254.2 794.96 254.2C795.984 254.2 796.869 253.912 797.616 253.336C798.363 252.76 798.939 251.971 799.344 250.968C799.771 249.944 799.984 248.76 799.984 247.416C799.984 245.965 799.803 244.696 799.44 243.608C799.077 242.499 798.533 241.635 797.808 241.016C797.083 240.376 796.165 240.056 795.056 240.056C794.352 240.056 793.648 240.227 792.944 240.568C792.261 240.888 791.675 241.325 791.184 241.88V249.976ZM804.439 263.672L803.639 262.936C804.3 262.061 804.887 261.133 805.399 260.152C805.932 259.192 806.391 258.189 806.775 257.144C807.159 256.12 807.468 255.053 807.703 253.944C807.959 252.835 808.151 251.704 808.279 250.552C808.407 249.379 808.471 248.195 808.471 247C808.471 245.805 808.407 244.643 808.279 243.512C808.151 242.36 807.959 241.251 807.703 240.184C807.468 239.117 807.159 238.083 806.775 237.08C806.391 236.056 805.932 235.075 805.399 234.136C804.887 233.197 804.3 232.291 803.639 231.416L804.439 230.68C805.228 231.405 806.049 232.333 806.903 233.464C807.756 234.573 808.545 235.843 809.271 237.272C809.996 238.701 810.583 240.237 811.031 241.88C811.479 243.523 811.703 245.229 811.703 247C811.703 248.771 811.479 250.499 811.031 252.184C810.583 253.869 809.996 255.448 809.271 256.92C808.545 258.392 807.756 259.704 806.903 260.856C806.049 262.008 805.228 262.947 804.439 263.672Z" fill="black"/>
</g>
<defs>
<clipPath id="clip0_10_48">
<rect width="1584" height="322" fill="white"/>
</clipPath>
<clipPath id="clip1_10_48">
<rect width="100" height="100" fill="white" transform="translate(190 183)"/>
</clipPath>
</defs>
</svg>
