<svg xmlns="http://www.w3.org/2000/svg" width="1584" height="322" viewBox="0 0 1584 322" fill="none">
<g clip-path="url(#clip0_10_48)">
<rect width="1584" height="322" fill="#FFFAEB"/>
<circle cx="240" cy="160" r="116.5" fill="#81B29A" stroke="#525893" stroke-width="7"/>
<path d="M199.169 201V196.776C201.73 196.776 203.692 196.093 205.058 194.728C206.423 193.363 207.532 191.485 208.385 189.096C209.324 186.707 210.391 183.933 211.586 180.776L237.954 108.968H241.026L269.57 181.8C270.252 183.592 271.02 185.896 271.874 188.712C272.727 191.528 273.068 193.917 272.898 195.88C274.348 195.795 275.799 195.709 277.25 195.624C278.7 195.539 280.151 195.453 281.602 195.368V201H252.29V196.776C255.532 196.691 257.666 195.965 258.69 194.6C259.714 193.235 260.098 191.613 259.842 189.736C259.586 187.859 259.159 186.152 258.562 184.616L254.082 172.584L220.802 173.352L216.322 187.048C215.724 189.096 215.17 190.717 214.658 191.912C214.231 193.107 213.719 194.429 213.122 195.88C214.828 195.795 216.492 195.709 218.114 195.624C219.82 195.539 221.484 195.453 223.106 195.368V201H199.169ZM222.722 167.848H252.29L243.202 143.4C242.263 140.755 241.282 138.152 240.258 135.592C239.319 132.947 238.38 130.301 237.442 127.656H237.186C236.332 130.045 235.436 132.435 234.498 134.824C233.644 137.213 232.748 139.645 231.81 142.12L222.722 167.848Z" fill="#FFFAEB"/>
<g clip-path="url(#clip1_10_48)">
<path d="M199.194 242.149L199.194 242.149C199.195 242.149 199.195 242.149 199.194 242.149Z" fill="#E33A25"/>
<path d="M283.684 235.059C283.601 234.77 283.518 234.481 283.432 234.194L286.327 230.001C286.622 229.575 286.683 229.02 286.49 228.534C286.298 228.05 285.878 227.703 285.381 227.618L280.486 226.787C280.297 226.4 280.098 226.019 279.899 225.641L281.955 220.934C282.166 220.454 282.122 219.896 281.841 219.461C281.562 219.024 281.087 218.769 280.582 218.788L275.615 218.969C275.358 218.634 275.096 218.302 274.83 217.976L275.971 212.931C276.087 212.418 275.941 211.882 275.584 211.51C275.229 211.139 274.714 210.985 274.223 211.106L269.385 212.295C269.072 212.018 268.753 211.745 268.431 211.477L268.605 206.297C268.624 205.772 268.38 205.274 267.96 204.983C267.54 204.69 267.008 204.646 266.549 204.864L262.035 207.009C261.672 206.801 261.306 206.594 260.937 206.395L260.139 201.29C260.059 200.773 259.726 200.333 259.26 200.133C258.795 199.931 258.263 199.996 257.855 200.303L253.831 203.323C253.435 203.191 253.037 203.065 252.634 202.944L250.899 198.103C250.723 197.61 250.316 197.248 249.82 197.146C249.326 197.045 248.817 197.216 248.475 197.599L245.088 201.388C244.678 201.341 244.268 201.298 243.857 201.263L241.242 196.856C240.977 196.41 240.509 196.138 240.005 196.138C239.502 196.138 239.033 196.41 238.77 196.856L236.154 201.263C235.743 201.298 235.331 201.341 234.922 201.388L231.535 197.599C231.192 197.216 230.681 197.045 230.189 197.146C229.693 197.249 229.286 197.61 229.11 198.103L227.374 202.944C226.972 203.065 226.574 203.192 226.177 203.323L222.154 200.303C221.745 199.995 221.213 199.93 220.747 200.133C220.283 200.333 219.949 200.773 219.869 201.29L219.071 206.395C218.701 206.594 218.336 206.8 217.971 207.009L213.458 204.864C213 204.645 212.465 204.69 212.048 204.983C211.628 205.274 211.383 205.772 211.402 206.297L211.576 211.477C211.254 211.745 210.937 212.018 210.622 212.295L205.784 211.106C205.293 210.986 204.778 211.139 204.422 211.51C204.064 211.882 203.919 212.418 204.034 212.931L205.174 217.976C204.909 218.303 204.648 218.634 204.391 218.969L199.424 218.788C198.923 218.774 198.444 219.024 198.164 219.461C197.884 219.896 197.841 220.454 198.05 220.934L200.108 225.641C199.908 226.019 199.709 226.4 199.518 226.787L194.624 227.618C194.127 227.702 193.708 228.049 193.514 228.534C193.322 229.02 193.385 229.575 193.678 230.001L196.573 234.194C196.551 234.268 196.53 234.343 196.508 234.417L194.917 236.107L199.194 242.149C199.194 242.149 240.243 261.085 278.32 242.469C282.67 241.689 283.684 235.059 283.684 235.059Z" fill="#E07A5F"/>
<path d="M247.383 231.649C247.383 231.649 251.926 226.675 256.468 231.649C256.468 231.649 260.038 238.282 256.468 241.598C256.468 241.598 250.628 246.24 247.383 241.598C247.383 241.598 243.489 237.95 247.383 231.649Z" fill="#030404"/>
<path d="M252.642 233.494C252.642 235.431 251.501 237.002 250.092 237.002C248.685 237.002 247.543 235.431 247.543 233.494C247.543 231.557 248.685 229.987 250.092 229.987C251.501 229.987 252.642 231.557 252.642 233.494Z" fill="white"/>
<path d="M227.107 230.291C227.107 230.291 234.9 226.841 237.027 234.542C237.027 234.542 239.255 243.518 230.627 244.024C230.627 244.024 219.626 241.906 227.107 230.291Z" fill="#030404"/>
<path d="M231.021 233.621C231.021 235.619 229.844 237.239 228.391 237.239C226.94 237.239 225.762 235.619 225.762 233.621C225.762 231.624 226.94 230.004 228.391 230.004C229.844 230.004 231.021 231.624 231.021 233.621Z" fill="white"/>
<path d="M200.528 243.201C201.562 242.025 204.076 240.601 203.883 238.835C203.539 235.672 200.916 233.364 198.025 233.679C197.308 233.757 196.642 233.989 196.051 234.342C196.008 234.332 195.964 234.323 195.92 234.315C195.92 234.315 186.145 239.114 191.717 248.715C191.769 249.2 202.834 263.4 205.941 264.481C207.975 265.189 204.063 252.346 200.528 243.201Z" fill="#E07A5F"/>
<path d="M279.951 242.772C278.753 241.763 275.596 240.846 275.525 239.071C275.397 235.892 277.648 233.22 280.554 233.103C281.274 233.074 281.967 233.205 282.604 233.467C282.646 233.451 282.687 233.435 282.729 233.42C282.729 233.42 293.108 236.717 289.021 247.039C289.041 247.526 280.204 263.209 277.291 264.739C275.385 265.74 277.811 252.341 279.951 242.772Z" fill="#E07A5F"/>
<path d="M208.031 242.856C208.031 242.856 207.901 255.807 220.593 258.697L223.239 253.38C223.239 253.38 214.042 254.27 213.335 242.856H208.031Z" fill="#E07A5F"/>
<path d="M272.67 242.856C272.67 242.856 272.8 255.807 260.108 258.697L257.461 253.38C257.461 253.38 266.658 254.27 267.366 242.856H272.67Z" fill="#E07A5F"/>
<path d="M263.501 256.065C261.591 251.449 255.426 249.616 249.733 251.971C244.721 254.045 241.749 258.672 242.41 262.899C246.367 262.838 250.612 262.581 254.743 261.983C254.743 261.983 252.306 265.922 248.719 269.36C251.131 269.983 253.944 269.81 256.65 268.69C262.344 266.335 265.411 260.682 263.501 256.065Z" fill="#E07A5F"/>
<path d="M228.181 261.762C228.181 261.762 233.388 262.451 240.507 262.626C241.131 258.144 237.736 253.401 232.319 251.566C226.335 249.539 220.151 251.83 218.507 256.682C216.864 261.535 220.382 267.112 226.367 269.139C229.019 270.037 231.711 270.087 234.029 269.441C230.547 265.998 228.181 261.762 228.181 261.762Z" fill="#E07A5F"/>
</g>
<path d="M1439.8 284.719C1440.09 285.352 1440.72 285.814 1441.49 285.939L1448.98 287.159C1449.26 287.666 1449.55 288.166 1449.85 288.662L1446.59 294.703C1446.25 295.319 1446.3 296.042 1446.72 296.614C1447.14 297.189 1447.86 297.534 1448.64 297.523L1456.27 297.435C1456.66 297.877 1457.05 298.315 1457.45 298.745L1455.58 305.251C1455.39 305.912 1455.6 306.612 1456.14 307.104C1456.67 307.595 1457.46 307.809 1458.22 307.668L1465.67 306.268C1466.15 306.636 1466.63 307 1467.12 307.356L1466.73 314.065C1466.69 314.744 1467.05 315.398 1467.69 315.787C1468.32 316.179 1469.14 316.252 1469.85 315.983L1476.83 313.334C1477.38 313.615 1477.94 313.894 1478.5 314.163L1479.6 320.803C1479.71 321.476 1480.21 322.055 1480.92 322.329C1481.63 322.603 1482.45 322.534 1483.08 322.148L1489.33 318.353C1489.94 318.535 1490.54 318.71 1491.16 318.879L1493.71 325.203C1493.97 325.848 1494.58 326.33 1495.34 326.476C1496.1 326.622 1496.88 326.415 1497.42 325.929L1502.71 321.116C1503.33 321.189 1503.96 321.257 1504.59 321.315L1508.5 327.103C1508.9 327.689 1509.61 328.055 1510.38 328.07C1511.15 328.085 1511.88 327.746 1512.29 327.176L1516.41 321.541C1517.05 321.507 1517.68 321.463 1518.31 321.414L1523.42 326.425C1523.93 326.931 1524.71 327.168 1525.47 327.052C1526.23 326.933 1526.87 326.476 1527.15 325.842L1529.93 319.619C1530.55 319.474 1531.16 319.321 1531.77 319.164L1537.88 323.195C1538.5 323.606 1539.31 323.706 1540.03 323.457C1540.75 323.211 1541.27 322.651 1541.41 321.983L1542.75 315.39C1543.33 315.142 1543.89 314.887 1544.46 314.626L1551.33 317.539C1552.03 317.836 1552.85 317.793 1553.5 317.425C1554.15 317.061 1554.54 316.422 1554.52 315.742L1554.38 309.022C1554.88 308.685 1555.37 308.34 1555.86 307.99L1563.26 309.674C1564.01 309.843 1564.8 309.66 1565.36 309.19C1565.92 308.718 1566.15 308.027 1565.99 307.359L1564.36 300.786C1564.77 300.37 1565.18 299.949 1565.58 299.523L1573.2 299.902C1573.97 299.936 1574.71 299.625 1575.15 299.066C1575.59 298.511 1575.67 297.79 1575.36 297.162L1572.31 291C1572.63 290.516 1572.94 290.028 1573.25 289.532L1580.78 288.599C1581.54 288.505 1582.19 288.067 1582.5 287.444C1582.81 286.819 1582.73 286.099 1582.29 285.537L1577.94 280.017C1577.98 279.923 1577.59 274.253 1574.11 269.631C1574.11 269.631 1574.08 269.619 1574.02 269.597C1566.11 258.404 1541.47 249.9 1512.15 249.34C1481.14 248.748 1455.03 257.238 1448.3 269.137C1445.3 272.185 1444.54 277.2 1444.63 277.473L1440.09 282.823C1439.63 283.367 1439.52 284.083 1439.8 284.719Z" fill="#8F1F1D"/>
<path d="M1593 260.767C1592.69 259.884 1589.49 260.109 1588.69 259.954L1576.99 260.058C1576.69 259.352 1576.37 258.656 1576.05 257.966L1583.63 246.227C1583.97 245.351 1585.84 244.123 1585.4 243.329C1584.95 242.531 1582.08 243.598 1581.27 243.634L1569.19 245.788C1568.78 245.177 1568.36 244.571 1567.93 243.976L1574.71 228.839C1574.89 227.904 1576.96 224.104 1576.39 223.425C1575.82 222.747 1573.13 225.035 1572.35 225.255L1559.21 233.606C1558.71 233.101 1558.2 232.602 1557.69 232.113L1561.41 219.001C1561.44 218.045 1563.43 213.508 1562.75 212.977C1562.08 212.443 1559.78 214.487 1559.05 214.884L1547.44 223.958C1546.86 223.578 1546.28 223.201 1545.68 222.836L1548.45 207.334C1548.32 206.389 1549.44 201.447 1548.7 201.08C1547.95 200.712 1544.05 205.019 1543.39 205.58L1534.3 217.229C1533.67 216.989 1533.03 216.758 1532.39 216.538L1531.53 198.945C1531.24 198.044 1531.31 194.86 1530.52 194.674C1529.73 194.49 1528.71 197.331 1528.16 198.029L1520.3 213.698C1519.65 213.612 1518.99 213.534 1518.33 213.469L1514.36 195.438C1513.93 194.623 1513.48 191.93 1512.67 191.93C1511.87 191.93 1511.24 195.157 1510.82 195.971L1506 213.47C1505.34 213.534 1504.68 213.613 1504.03 213.699L1497.19 197.802C1496.64 197.103 1495.7 193.652 1494.91 193.836C1494.12 194.024 1494.27 196.596 1493.99 197.497L1491.94 216.539C1491.29 216.759 1490.66 216.991 1490.02 217.23L1483.8 209.241C1483.15 208.678 1479.5 203.151 1478.75 203.521C1478.01 203.887 1478.54 209.669 1478.41 210.613L1478.64 222.837C1478.05 223.201 1477.46 223.576 1476.88 223.959L1465.54 213.359C1464.8 212.96 1463.26 211.299 1462.59 211.833C1461.92 212.365 1462.48 214.766 1462.51 215.723L1466.64 232.113C1466.12 232.602 1465.62 233.101 1465.11 233.606L1452.66 225.865C1451.87 225.648 1449.44 223.739 1448.87 224.417C1448.3 225.096 1449.61 225.811 1449.8 226.747L1456.39 243.977C1455.96 244.573 1455.54 245.177 1455.13 245.788L1434.83 238.906C1434.02 238.879 1431.81 237.803 1431.36 238.601C1430.91 239.395 1432.8 240.547 1433.13 241.423L1448.28 257.967C1447.95 258.657 1447.64 259.352 1447.33 260.059L1432.63 258.276C1431.83 258.429 1429.74 258.001 1429.43 258.886C1429.12 259.774 1431.15 260.925 1431.62 261.703L1442.61 273.578C1442.58 273.713 1443.1 281.685 1446.81 288.097C1446.81 288.097 1446.84 288.113 1446.9 288.143C1455.37 303.687 1481.23 314.997 1511.82 314.997C1544.18 314.997 1571.25 302.344 1578.04 285.411C1581.11 281.04 1581.81 273.959 1581.71 273.578L1590.64 263.919C1591.12 263.14 1593.31 261.655 1593 260.767Z" fill="#8F1F1D"/>
<path d="M1448.59 273.725C1448.59 273.725 1431.71 276.154 1427.91 276.996C1424.11 277.837 1426.65 278.477 1427.91 278.678C1432.32 279.379 1454.08 279.94 1454.5 280.08C1454.92 280.221 1448.59 273.725 1448.59 273.725Z" fill="#8F1F1D"/>
<path d="M1573.41 274.907C1573.41 274.907 1590.29 277.335 1594.09 278.177C1597.89 279.018 1595.35 279.659 1594.09 279.859C1589.68 280.561 1567.92 281.121 1567.5 281.262C1567.08 281.402 1573.41 274.907 1573.41 274.907Z" fill="#8F1F1D"/>
<path d="M1488.61 274.977C1488.61 274.977 1481.29 266.941 1473.97 274.977C1473.97 274.977 1468.21 285.693 1473.97 291.05C1473.97 291.05 1483.38 298.551 1488.61 291.05C1488.61 291.05 1494.88 285.156 1488.61 274.977Z" fill="black"/>
<path d="M1474 277.958C1474 281.087 1475.84 283.624 1478.11 283.624C1480.38 283.624 1482.22 281.088 1482.22 277.958C1482.22 274.829 1480.38 272.292 1478.11 272.292C1475.84 272.292 1474 274.829 1474 277.958Z" fill="white"/>
<path d="M1529.62 272.027C1529.62 272.027 1517.06 266.453 1513.64 278.894C1513.64 278.894 1510.05 293.396 1523.95 294.215C1523.95 294.215 1541.68 290.791 1529.62 272.027Z" fill="black"/>
<path d="M1516 277.408C1516 280.635 1517.9 283.252 1520.24 283.252C1522.58 283.252 1524.47 280.635 1524.47 277.408C1524.47 274.18 1522.58 271.564 1520.24 271.564C1517.9 271.564 1516 274.18 1516 277.408Z" fill="white"/>
<path d="M423.232 193V188.776C425.792 188.776 427.755 188.093 429.12 186.728C430.485 185.363 431.595 183.485 432.448 181.096C433.387 178.707 434.453 175.933 435.648 172.776L462.016 100.968H465.088L493.632 173.8C494.315 175.592 495.083 177.896 495.936 180.712C496.789 183.528 497.131 185.917 496.96 187.88C498.411 187.795 499.861 187.709 501.312 187.624C502.763 187.539 504.213 187.453 505.664 187.368V193H476.352V188.776C479.595 188.691 481.728 187.965 482.752 186.6C483.776 185.235 484.16 183.613 483.904 181.736C483.648 179.859 483.221 178.152 482.624 176.616L478.144 164.584L444.864 165.352L440.384 179.048C439.787 181.096 439.232 182.717 438.72 183.912C438.293 185.107 437.781 186.429 437.184 187.88C438.891 187.795 440.555 187.709 442.176 187.624C443.883 187.539 445.547 187.453 447.168 187.368V193H423.232ZM446.784 159.848H476.352L467.264 135.4C466.325 132.755 465.344 130.152 464.32 127.592C463.381 124.947 462.443 122.301 461.504 119.656H461.248C460.395 122.045 459.499 124.435 458.56 126.824C457.707 129.213 456.811 131.645 455.872 134.12L446.784 159.848ZM509.757 189.16C512.402 189.16 514.237 188.52 515.261 187.24C516.285 185.875 516.882 184.04 517.053 181.736C517.224 179.347 517.309 176.616 517.309 173.544V144.36C517.309 142.995 517.309 141.629 517.309 140.264C517.394 138.899 517.565 137.491 517.821 136.04C516.285 136.125 514.749 136.211 513.213 136.296C511.762 136.296 510.269 136.339 508.733 136.424V131.176H512.701C516.37 131.176 518.888 130.835 520.253 130.152C521.704 129.384 522.898 128.573 523.837 127.72H527.549C527.72 129.085 527.848 130.792 527.933 132.84C528.018 134.803 528.104 137.32 528.189 140.392C529.469 138.259 531.218 136.168 533.437 134.12C535.656 132.072 538.13 130.365 540.861 129C543.677 127.635 546.621 126.952 549.693 126.952C552.082 126.952 554.173 127.592 555.965 128.872C557.757 130.152 558.653 132.2 558.653 135.016C558.653 135.699 558.44 136.552 558.013 137.576C557.586 138.515 556.904 139.368 555.965 140.136C555.026 140.819 553.789 141.16 552.253 141.16C550.376 141.075 548.882 140.349 547.773 138.984C546.664 137.533 546.237 135.869 546.493 133.992C544.36 133.907 542.141 134.461 539.837 135.656C537.618 136.851 535.528 138.515 533.565 140.648C531.602 142.696 529.853 145.128 528.317 147.944L528.445 179.432C528.445 181.139 528.402 182.675 528.317 184.04C528.317 185.32 528.189 186.685 527.933 188.136C529.298 188.051 530.621 188.008 531.901 188.008C533.266 187.923 534.632 187.837 535.997 187.752V193H509.757V189.16ZM573.196 126.312C573.196 116.84 574.903 109.373 578.316 103.912C581.815 98.4507 587.788 95.72 596.236 95.72C598.113 95.72 600.076 96.0613 602.124 96.744C604.257 97.3413 606.092 98.3653 607.628 99.816C609.164 101.181 609.932 102.973 609.932 105.192C609.932 106.813 609.463 108.179 608.524 109.288C607.671 110.397 606.391 110.952 604.684 110.952C602.636 111.037 601.185 110.44 600.332 109.16C599.564 107.795 599.18 106.643 599.18 105.704C599.18 105.192 599.223 104.68 599.308 104.168C599.393 103.656 599.564 103.101 599.82 102.504C599.223 101.736 598.369 101.181 597.26 100.84C596.236 100.499 595.255 100.328 594.316 100.328C591.671 100.328 589.623 101.096 588.172 102.632C586.721 104.168 585.697 106.088 585.1 108.392C584.503 110.696 584.204 113.085 584.204 115.56V129H601.484V133.992L584.204 134.376L584.332 179.432C584.332 181.139 584.289 182.675 584.204 184.04C584.204 185.32 584.076 186.685 583.82 188.136C585.185 188.051 586.508 188.008 587.788 188.008C589.153 187.923 590.519 187.837 591.884 187.752V193H565.772V189.16C568.417 189.16 570.252 188.52 571.276 187.24C572.3 185.875 572.897 184.04 573.068 181.736C573.239 179.347 573.324 176.616 573.324 173.544L573.196 134.504L562.7 134.76V129H573.196V126.312ZM634.622 195.048C630.355 195.048 626.558 194.451 623.23 193.256C619.902 192.147 617.171 190.867 615.038 189.416L615.55 193.896H610.174L609.406 171.88H613.374C613.545 175.379 614.526 178.536 616.318 181.352C618.11 184.083 620.414 186.216 623.23 187.752C626.046 189.288 629.075 190.056 632.318 190.056C634.537 190.056 636.713 189.715 638.846 189.032C640.979 188.264 642.771 187.155 644.222 185.704C645.673 184.168 646.398 182.248 646.398 179.944C646.398 177.555 645.673 175.592 644.222 174.056C642.857 172.435 641.022 171.027 638.718 169.832C636.414 168.637 633.939 167.528 631.294 166.504C628.734 165.48 626.174 164.413 623.614 163.304C621.054 162.195 618.665 160.872 616.446 159.336C614.313 157.8 612.606 155.923 611.326 153.704C610.046 151.485 609.406 148.755 609.406 145.512C609.406 143.72 609.747 141.757 610.43 139.624C611.113 137.491 612.265 135.485 613.886 133.608C615.507 131.645 617.726 130.067 620.542 128.872C623.358 127.592 626.942 126.952 631.294 126.952C633.598 126.952 636.158 127.336 638.974 128.104C641.79 128.872 644.521 130.323 647.166 132.456L646.91 127.592H652.286V149.992H648.19C648.019 147.005 647.337 144.147 646.142 141.416C644.947 138.6 643.198 136.296 640.894 134.504C638.59 132.627 635.603 131.688 631.934 131.688C628.009 131.688 624.937 132.669 622.718 134.632C620.499 136.595 619.39 138.856 619.39 141.416C619.39 144.061 620.201 146.28 621.822 148.072C623.529 149.779 625.705 151.272 628.35 152.552C630.995 153.832 633.811 155.069 636.798 156.264C640.041 157.629 643.198 159.123 646.27 160.744C649.342 162.365 651.859 164.413 653.822 166.888C655.785 169.277 656.766 172.392 656.766 176.232C656.766 180.499 655.657 184.04 653.438 186.856C651.305 189.672 648.531 191.72 645.118 193C641.79 194.365 638.291 195.048 634.622 195.048ZM675.696 126.312C675.696 116.84 677.403 109.373 680.816 103.912C684.315 98.4507 690.288 95.72 698.736 95.72C700.613 95.72 702.576 96.0613 704.624 96.744C706.757 97.3413 708.592 98.3653 710.128 99.816C711.664 101.181 712.432 102.973 712.432 105.192C712.432 106.813 711.963 108.179 711.024 109.288C710.171 110.397 708.891 110.952 707.184 110.952C705.136 111.037 703.685 110.44 702.832 109.16C702.064 107.795 701.68 106.643 701.68 105.704C701.68 105.192 701.723 104.68 701.808 104.168C701.893 103.656 702.064 103.101 702.32 102.504C701.723 101.736 700.869 101.181 699.76 100.84C698.736 100.499 697.755 100.328 696.816 100.328C694.171 100.328 692.123 101.096 690.672 102.632C689.221 104.168 688.197 106.088 687.6 108.392C687.003 110.696 686.704 113.085 686.704 115.56V129H703.984V133.992L686.704 134.376L686.832 179.432C686.832 181.139 686.789 182.675 686.704 184.04C686.704 185.32 686.576 186.685 686.32 188.136C687.685 188.051 689.008 188.008 690.288 188.008C691.653 187.923 693.019 187.837 694.384 187.752V193H668.272V189.16C670.917 189.16 672.752 188.52 673.776 187.24C674.8 185.875 675.397 184.04 675.568 181.736C675.739 179.347 675.824 176.616 675.824 173.544L675.696 134.504L665.2 134.76V129H675.696V126.312ZM710.882 189.16C713.527 189.16 715.362 188.52 716.386 187.24C717.41 185.875 718.007 184.04 718.178 181.736C718.349 179.347 718.434 176.616 718.434 173.544V144.36C718.434 142.995 718.434 141.629 718.434 140.264C718.519 138.899 718.69 137.491 718.946 136.04C717.41 136.125 715.874 136.211 714.338 136.296C712.887 136.296 711.394 136.339 709.858 136.424V131.176H713.826C717.495 131.176 720.013 130.835 721.378 130.152C722.829 129.384 724.023 128.573 724.962 127.72H728.674C728.845 129.085 728.973 130.792 729.058 132.84C729.143 134.803 729.229 137.32 729.314 140.392C730.594 138.259 732.343 136.168 734.562 134.12C736.781 132.072 739.255 130.365 741.986 129C744.802 127.635 747.746 126.952 750.818 126.952C753.207 126.952 755.298 127.592 757.09 128.872C758.882 130.152 759.778 132.2 759.778 135.016C759.778 135.699 759.565 136.552 759.138 137.576C758.711 138.515 758.029 139.368 757.09 140.136C756.151 140.819 754.914 141.16 753.378 141.16C751.501 141.075 750.007 140.349 748.898 138.984C747.789 137.533 747.362 135.869 747.618 133.992C745.485 133.907 743.266 134.461 740.962 135.656C738.743 136.851 736.653 138.515 734.69 140.648C732.727 142.696 730.978 145.128 729.442 147.944L729.57 179.432C729.57 181.139 729.527 182.675 729.442 184.04C729.442 185.32 729.314 186.685 729.058 188.136C730.423 188.051 731.746 188.008 733.026 188.008C734.391 187.923 735.757 187.837 737.122 187.752V193H710.882V189.16Z" fill="black"/>
<path d="M433.468 222.64L434.368 223.468C433.624 224.452 432.952 225.496 432.352 226.6C431.776 227.68 431.272 228.808 430.84 229.984C430.408 231.136 430.048 232.336 429.76 233.584C429.496 234.832 429.292 236.116 429.148 237.436C429.004 238.732 428.932 240.052 428.932 241.396C428.932 242.74 429.004 244.06 429.148 245.356C429.292 246.628 429.496 247.864 429.76 249.064C430.048 250.264 430.408 251.428 430.84 252.556C431.272 253.708 431.776 254.812 432.352 255.868C432.952 256.924 433.624 257.944 434.368 258.928L433.468 259.756C432.58 258.94 431.656 257.896 430.696 256.624C429.736 255.376 428.848 253.948 428.032 252.34C427.216 250.732 426.556 249.004 426.052 247.156C425.548 245.308 425.296 243.388 425.296 241.396C425.296 239.404 425.548 237.46 426.052 235.564C426.556 233.668 427.216 231.892 428.032 230.236C428.848 228.58 429.736 227.104 430.696 225.808C431.656 224.512 432.58 223.456 433.468 222.64ZM443.235 250.576C441.939 250.576 440.847 250.336 439.959 249.856C439.095 249.376 438.435 248.56 437.979 247.408C437.547 246.256 437.331 244.696 437.331 242.728V236.32C437.331 235.936 437.331 235.552 437.331 235.168C437.355 234.784 437.403 234.388 437.475 233.98C437.067 234.004 436.647 234.028 436.215 234.052C435.807 234.052 435.399 234.064 434.991 234.088V232.612H436.107C437.139 232.612 437.883 232.516 438.339 232.324C438.819 232.108 439.191 231.88 439.455 231.64H440.499V242.62C440.499 244.684 440.787 246.232 441.363 247.264C441.963 248.272 442.971 248.764 444.387 248.74C445.299 248.716 446.163 248.44 446.979 247.912C447.819 247.36 448.491 246.712 448.995 245.968V236.716C448.995 236.14 449.007 235.648 449.031 235.24C449.055 234.808 449.103 234.388 449.175 233.98C448.743 234.004 448.311 234.028 447.879 234.052C447.447 234.052 447.015 234.064 446.583 234.088V232.612H447.699C448.731 232.612 449.475 232.516 449.931 232.324C450.411 232.108 450.783 231.88 451.047 231.64H452.091L452.055 245.248C452.055 245.632 452.043 246.172 452.019 246.868C451.995 247.564 451.959 248.152 451.911 248.632C452.343 248.608 452.775 248.584 453.207 248.56C453.639 248.536 454.071 248.512 454.503 248.488V250H449.355C449.283 249.592 449.223 249.208 449.175 248.848C449.151 248.488 449.127 248.152 449.103 247.84C448.359 248.584 447.459 249.232 446.403 249.784C445.347 250.312 444.291 250.576 443.235 250.576ZM457.119 250V248.92C457.863 248.92 458.379 248.74 458.667 248.38C458.955 247.996 459.123 247.48 459.171 246.832C459.219 246.16 459.243 245.392 459.243 244.528L459.279 236.32C459.279 235.936 459.279 235.552 459.279 235.168C459.303 234.784 459.351 234.388 459.423 233.98C458.991 234.004 458.559 234.028 458.127 234.052C457.719 234.076 457.299 234.1 456.867 234.124V232.612C457.923 232.612 458.715 232.564 459.243 232.468C459.795 232.372 460.203 232.252 460.467 232.108C460.731 231.964 460.947 231.808 461.115 231.64H462.159C462.183 231.808 462.195 232 462.195 232.216C462.219 232.432 462.243 232.672 462.267 232.936C462.291 233.2 462.303 233.5 462.303 233.836C462.831 233.38 463.407 232.972 464.031 232.612C464.679 232.252 465.351 231.964 466.047 231.748C466.767 231.532 467.475 231.424 468.171 231.424C470.259 231.424 471.783 232.084 472.743 233.404C473.703 234.7 474.183 236.728 474.183 239.488V246.184C474.183 246.664 474.171 247.096 474.147 247.48C474.147 247.84 474.111 248.224 474.039 248.632C474.423 248.608 474.795 248.596 475.155 248.596C475.539 248.572 475.923 248.548 476.307 248.524V250H468.963V248.92C469.707 248.92 470.223 248.74 470.511 248.38C470.799 247.996 470.967 247.48 471.015 246.832C471.063 246.16 471.087 245.392 471.087 244.528V239.488C471.063 237.424 470.715 235.864 470.043 234.808C469.395 233.752 468.363 233.236 466.947 233.26C466.083 233.284 465.231 233.512 464.391 233.944C463.575 234.376 462.891 234.928 462.339 235.6C462.363 235.792 462.375 236.008 462.375 236.248C462.375 236.488 462.375 236.74 462.375 237.004L462.339 246.184C462.339 246.664 462.327 247.096 462.303 247.48C462.303 247.84 462.267 248.224 462.195 248.632C462.579 248.608 462.951 248.596 463.311 248.596C463.695 248.572 464.079 248.548 464.463 248.524V250H457.119ZM489.93 250C489.858 249.592 489.81 249.232 489.786 248.92C489.762 248.608 489.726 248.284 489.678 247.948C488.862 248.764 487.974 249.412 487.014 249.892C486.078 250.348 485.082 250.576 484.026 250.576C482.202 250.576 480.846 250.168 479.958 249.352C479.07 248.512 478.626 247.492 478.626 246.292C478.626 245.188 478.962 244.24 479.634 243.448C480.33 242.632 481.218 241.972 482.298 241.468C483.402 240.94 484.59 240.556 485.862 240.316C487.158 240.052 488.406 239.932 489.606 239.956V237.724C489.606 236.884 489.534 236.092 489.39 235.348C489.246 234.604 488.934 233.992 488.454 233.512C487.974 233.032 487.206 232.78 486.15 232.756C485.454 232.732 484.734 232.864 483.99 233.152C483.27 233.44 482.742 233.932 482.406 234.628C482.598 234.82 482.718 235.048 482.766 235.312C482.838 235.552 482.874 235.78 482.874 235.996C482.874 236.284 482.754 236.62 482.514 237.004C482.274 237.364 481.854 237.532 481.254 237.508C480.75 237.508 480.366 237.34 480.102 237.004C479.838 236.644 479.706 236.224 479.706 235.744C479.706 234.928 480.006 234.196 480.606 233.548C481.23 232.9 482.082 232.384 483.162 232C484.242 231.616 485.466 231.424 486.834 231.424C488.85 231.424 490.338 231.964 491.298 233.044C492.258 234.1 492.726 235.78 492.702 238.084C492.702 238.972 492.702 239.872 492.702 240.784C492.702 241.672 492.69 242.572 492.666 243.484C492.666 244.372 492.666 245.272 492.666 246.184C492.666 246.568 492.654 246.952 492.63 247.336C492.606 247.72 492.57 248.152 492.522 248.632C492.954 248.608 493.374 248.584 493.782 248.56C494.214 248.536 494.646 248.512 495.078 248.488V250H489.93ZM489.606 241.18C488.79 241.204 487.926 241.312 487.014 241.504C486.126 241.672 485.298 241.936 484.53 242.296C483.786 242.656 483.174 243.136 482.694 243.736C482.238 244.312 482.022 245.02 482.046 245.86C482.094 246.748 482.382 247.42 482.91 247.876C483.462 248.308 484.11 248.524 484.854 248.524C485.838 248.524 486.69 248.344 487.41 247.984C488.154 247.6 488.886 247.072 489.606 246.4C489.582 246.136 489.57 245.848 489.57 245.536C489.57 245.224 489.57 244.9 489.57 244.564C489.57 244.444 489.57 244.06 489.57 243.412C489.594 242.764 489.606 242.02 489.606 241.18ZM499.817 231.244C499.817 228.58 500.297 226.48 501.257 224.944C502.241 223.408 503.921 222.64 506.297 222.64C506.825 222.64 507.377 222.736 507.953 222.928C508.553 223.096 509.069 223.384 509.501 223.792C509.933 224.176 510.149 224.68 510.149 225.304C510.149 225.76 510.017 226.144 509.753 226.456C509.513 226.768 509.153 226.924 508.673 226.924C508.097 226.948 507.689 226.78 507.449 226.42C507.233 226.036 507.125 225.712 507.125 225.448C507.125 225.304 507.137 225.16 507.161 225.016C507.185 224.872 507.233 224.716 507.305 224.548C507.137 224.332 506.897 224.176 506.585 224.08C506.297 223.984 506.021 223.936 505.757 223.936C505.013 223.936 504.437 224.152 504.029 224.584C503.621 225.016 503.333 225.556 503.165 226.204C502.997 226.852 502.913 227.524 502.913 228.22V232H507.773V233.404L502.913 233.512L502.949 246.184C502.949 246.664 502.937 247.096 502.913 247.48C502.913 247.84 502.877 248.224 502.805 248.632C503.189 248.608 503.561 248.596 503.921 248.596C504.305 248.572 504.689 248.548 505.073 248.524V250H497.729V248.92C498.473 248.92 498.989 248.74 499.277 248.38C499.565 247.996 499.733 247.48 499.781 246.832C499.829 246.16 499.853 245.392 499.853 244.528L499.817 233.548L496.865 233.62V232H499.817V231.244ZM510.28 250V248.92C511.024 248.92 511.54 248.74 511.828 248.38C512.116 247.996 512.284 247.48 512.332 246.832C512.38 246.16 512.404 245.392 512.404 244.528L512.332 233.548L509.38 233.62V232H512.332C512.332 229 513.052 226.696 514.492 225.088C515.956 223.456 518.032 222.64 520.72 222.64C521.968 222.64 523.096 222.772 524.104 223.036C525.136 223.3 525.964 223.672 526.588 224.152C527.212 224.632 527.524 225.184 527.524 225.808C527.524 226.264 527.392 226.66 527.128 226.996C526.864 227.332 526.48 227.5 525.976 227.5C525.376 227.524 524.956 227.356 524.716 226.996C524.476 226.612 524.356 226.276 524.356 225.988C524.356 225.82 524.368 225.652 524.392 225.484C524.416 225.316 524.464 225.16 524.536 225.016C524.128 224.704 523.624 224.464 523.024 224.296C522.448 224.104 521.776 224.008 521.008 224.008C519.928 224.008 518.968 224.248 518.128 224.728C517.288 225.208 516.628 225.94 516.148 226.924C515.668 227.908 515.428 229.156 515.428 230.668V232H523.672C524.224 232 524.692 231.988 525.076 231.964C525.484 231.916 525.808 231.868 526.048 231.82C526.288 231.748 526.432 231.688 526.48 231.64H527.524V246.184C527.524 246.664 527.512 247.096 527.488 247.48C527.488 247.84 527.452 248.224 527.38 248.632C527.764 248.608 528.136 248.596 528.496 248.596C528.88 248.572 529.264 248.548 529.648 248.524V250H522.304V248.92C523.048 248.92 523.564 248.74 523.852 248.38C524.14 247.996 524.308 247.48 524.356 246.832C524.404 246.16 524.428 245.392 524.428 244.528V235.6C524.428 235.216 524.44 234.856 524.464 234.52C524.488 234.16 524.524 233.74 524.572 233.26L515.428 233.476L515.464 246.22C515.464 246.7 515.452 247.12 515.428 247.48C515.428 247.84 515.392 248.224 515.32 248.632C515.704 248.608 516.076 248.596 516.436 248.596C516.82 248.572 517.204 248.548 517.588 248.524V250H510.28ZM532.134 248.92C532.878 248.92 533.394 248.74 533.682 248.38C533.97 247.996 534.138 247.48 534.186 246.832C534.234 246.16 534.258 245.392 534.258 244.528V227.5C534.258 227.116 534.258 226.756 534.258 226.42C534.282 226.06 534.318 225.64 534.366 225.16C533.934 225.184 533.502 225.208 533.07 225.232C532.662 225.256 532.242 225.28 531.81 225.304V223.792C532.866 223.792 533.682 223.744 534.258 223.648C534.858 223.552 535.302 223.432 535.59 223.288C535.902 223.144 536.142 222.988 536.31 222.82H537.354L537.39 246.184C537.39 246.664 537.378 247.096 537.354 247.48C537.33 247.84 537.282 248.224 537.21 248.632C537.594 248.608 537.966 248.596 538.326 248.596C538.71 248.572 539.094 248.548 539.478 248.524V250H532.134V248.92ZM542.303 248.92C543.047 248.92 543.563 248.74 543.851 248.38C544.139 247.996 544.307 247.48 544.355 246.832C544.403 246.16 544.427 245.392 544.427 244.528V236.32C544.427 235.936 544.439 235.576 544.463 235.24C544.487 234.88 544.523 234.46 544.571 233.98C544.139 234.004 543.707 234.028 543.275 234.052C542.867 234.076 542.447 234.1 542.015 234.124V232.612C543.071 232.612 543.887 232.564 544.463 232.468C545.039 232.372 545.471 232.252 545.759 232.108C546.071 231.964 546.311 231.808 546.479 231.64H547.523V246.184C547.523 246.664 547.511 247.096 547.487 247.48C547.487 247.84 547.451 248.224 547.379 248.632C547.763 248.608 548.135 248.596 548.495 248.596C548.879 248.572 549.263 248.548 549.647 248.524V250H542.303V248.92ZM545.795 228.076C545.291 228.076 544.847 227.872 544.463 227.464C544.079 227.056 543.887 226.552 543.887 225.952C543.887 225.352 544.079 224.848 544.463 224.44C544.871 224.008 545.327 223.792 545.831 223.792C546.383 223.792 546.839 224.008 547.199 224.44C547.583 224.848 547.775 225.352 547.775 225.952C547.775 226.552 547.571 227.056 547.163 227.464C546.779 227.872 546.323 228.076 545.795 228.076ZM563.372 250C563.3 249.592 563.252 249.232 563.228 248.92C563.204 248.608 563.168 248.284 563.12 247.948C562.304 248.764 561.416 249.412 560.456 249.892C559.52 250.348 558.524 250.576 557.468 250.576C555.644 250.576 554.288 250.168 553.4 249.352C552.512 248.512 552.068 247.492 552.068 246.292C552.068 245.188 552.404 244.24 553.076 243.448C553.772 242.632 554.66 241.972 555.74 241.468C556.844 240.94 558.032 240.556 559.304 240.316C560.6 240.052 561.848 239.932 563.048 239.956V237.724C563.048 236.884 562.976 236.092 562.832 235.348C562.688 234.604 562.376 233.992 561.896 233.512C561.416 233.032 560.648 232.78 559.592 232.756C558.896 232.732 558.176 232.864 557.432 233.152C556.712 233.44 556.184 233.932 555.848 234.628C556.04 234.82 556.16 235.048 556.208 235.312C556.28 235.552 556.316 235.78 556.316 235.996C556.316 236.284 556.196 236.62 555.956 237.004C555.716 237.364 555.296 237.532 554.696 237.508C554.192 237.508 553.808 237.34 553.544 237.004C553.28 236.644 553.148 236.224 553.148 235.744C553.148 234.928 553.448 234.196 554.048 233.548C554.672 232.9 555.524 232.384 556.604 232C557.684 231.616 558.908 231.424 560.276 231.424C562.292 231.424 563.78 231.964 564.74 233.044C565.7 234.1 566.168 235.78 566.144 238.084C566.144 238.972 566.144 239.872 566.144 240.784C566.144 241.672 566.132 242.572 566.108 243.484C566.108 244.372 566.108 245.272 566.108 246.184C566.108 246.568 566.096 246.952 566.072 247.336C566.048 247.72 566.012 248.152 565.964 248.632C566.396 248.608 566.816 248.584 567.224 248.56C567.656 248.536 568.088 248.512 568.52 248.488V250H563.372ZM563.048 241.18C562.232 241.204 561.368 241.312 560.456 241.504C559.568 241.672 558.74 241.936 557.972 242.296C557.228 242.656 556.616 243.136 556.136 243.736C555.68 244.312 555.464 245.02 555.488 245.86C555.536 246.748 555.824 247.42 556.352 247.876C556.904 248.308 557.552 248.524 558.296 248.524C559.28 248.524 560.132 248.344 560.852 247.984C561.596 247.6 562.328 247.072 563.048 246.4C563.024 246.136 563.012 245.848 563.012 245.536C563.012 245.224 563.012 244.9 563.012 244.564C563.012 244.444 563.012 244.06 563.012 243.412C563.036 242.764 563.048 242.02 563.048 241.18ZM577.512 250.576C576.96 250.576 576.396 250.492 575.82 250.324C575.244 250.18 574.704 249.88 574.2 249.424C573.72 248.968 573.336 248.308 573.048 247.444C572.76 246.556 572.616 245.392 572.616 243.952L572.688 233.512L569.916 233.548V232C570.54 231.976 571.176 231.748 571.824 231.316C572.472 230.86 573.048 230.248 573.552 229.48C574.08 228.712 574.44 227.872 574.632 226.96H575.856V232H581.904V233.404L575.856 233.476L575.784 243.484C575.784 244.564 575.868 245.488 576.036 246.256C576.228 247 576.528 247.564 576.936 247.948C577.344 248.332 577.872 248.524 578.52 248.524C579.192 248.524 579.816 248.332 580.392 247.948C580.992 247.564 581.52 247.036 581.976 246.364L582.948 247.156C582.42 247.948 581.892 248.572 581.364 249.028C580.86 249.484 580.368 249.82 579.888 250.036C579.408 250.276 578.964 250.42 578.556 250.468C578.148 250.54 577.8 250.576 577.512 250.576ZM593.378 250.576C591.722 250.576 590.222 250.192 588.878 249.424C587.558 248.632 586.514 247.528 585.746 246.112C584.978 244.672 584.594 242.98 584.594 241.036C584.594 239.356 584.966 237.784 585.71 236.32C586.478 234.856 587.546 233.68 588.914 232.792C590.282 231.88 591.866 231.424 593.666 231.424C594.674 231.424 595.61 231.592 596.474 231.928C597.362 232.24 598.142 232.732 598.814 233.404C599.486 234.052 600.014 234.88 600.398 235.888C600.782 236.872 600.974 238.036 600.974 239.38L588.302 239.596C588.302 241.42 588.494 243.028 588.878 244.42C589.286 245.788 589.934 246.856 590.822 247.624C591.71 248.368 592.85 248.74 594.242 248.74C594.986 248.74 595.742 248.608 596.51 248.344C597.302 248.08 598.034 247.72 598.706 247.264C599.378 246.808 599.918 246.304 600.326 245.752L601.19 246.472C600.542 247.48 599.762 248.284 598.85 248.884C597.938 249.484 597.002 249.916 596.042 250.18C595.082 250.444 594.194 250.576 593.378 250.576ZM588.41 238.084H597.59C597.59 237.22 597.458 236.392 597.194 235.6C596.954 234.784 596.546 234.124 595.97 233.62C595.394 233.092 594.638 232.828 593.702 232.828C592.31 232.828 591.146 233.248 590.21 234.088C589.298 234.904 588.698 236.236 588.41 238.084ZM611.706 250.576C610.242 250.576 608.922 250.216 607.746 249.496C606.57 248.752 605.634 247.696 604.938 246.328C604.266 244.96 603.93 243.352 603.93 241.504C603.93 239.536 604.326 237.796 605.118 236.284C605.91 234.772 607.002 233.584 608.394 232.72C609.81 231.856 611.406 231.424 613.182 231.424C613.974 231.424 614.754 231.532 615.522 231.748C616.314 231.94 616.938 232.168 617.394 232.432V227.5C617.394 227.116 617.394 226.756 617.394 226.42C617.418 226.06 617.454 225.64 617.502 225.16C617.07 225.184 616.638 225.208 616.206 225.232C615.798 225.256 615.378 225.28 614.946 225.304V223.792C616.002 223.792 616.818 223.744 617.394 223.648C617.97 223.552 618.402 223.432 618.69 223.288C619.002 223.144 619.242 222.988 619.41 222.82H620.454V246.184C620.454 246.568 620.442 246.952 620.418 247.336C620.394 247.72 620.358 248.152 620.31 248.632C620.742 248.608 621.162 248.584 621.57 248.56C622.002 248.536 622.434 248.512 622.866 248.488V250H617.718C617.646 249.64 617.586 249.316 617.538 249.028C617.514 248.716 617.49 248.416 617.466 248.128C616.794 248.872 615.966 249.472 614.982 249.928C613.998 250.36 612.906 250.576 611.706 250.576ZM613.002 248.812C613.794 248.812 614.586 248.584 615.378 248.128C616.194 247.672 616.866 247.108 617.394 246.436C617.37 246.148 617.358 245.848 617.358 245.536C617.358 245.2 617.358 244.84 617.358 244.456L617.394 234.088C616.818 233.656 616.182 233.344 615.486 233.152C614.814 232.936 614.118 232.828 613.398 232.828C612.198 232.828 611.154 233.176 610.266 233.872C609.378 234.568 608.706 235.54 608.25 236.788C607.794 238.036 607.59 239.5 607.638 241.18C607.686 242.644 607.914 243.952 608.322 245.104C608.754 246.256 609.354 247.168 610.122 247.84C610.914 248.488 611.874 248.812 613.002 248.812ZM641.167 250.108L636.451 236.284C636.283 235.78 636.127 235.348 635.983 234.988C635.863 234.628 635.767 234.316 635.695 234.052C635.623 233.788 635.563 233.56 635.515 233.368L633.607 233.476V232H641.239V233.08C640.159 233.104 639.559 233.476 639.439 234.196C639.343 234.892 639.487 235.816 639.871 236.968L641.527 242.008C641.719 242.584 641.911 243.172 642.103 243.772C642.295 244.348 642.487 244.924 642.679 245.5C642.895 244.852 643.111 244.204 643.327 243.556C643.567 242.884 643.795 242.212 644.011 241.54L647.215 232H648.691L652.327 242.476C652.519 243.004 652.711 243.544 652.903 244.096C653.095 244.648 653.287 245.2 653.479 245.752C653.671 245.224 653.851 244.708 654.019 244.204C654.211 243.676 654.391 243.148 654.559 242.62L656.935 235.78C657.103 235.3 657.271 234.844 657.439 234.412C657.607 233.98 657.799 233.632 658.015 233.368L655.927 233.476V232H662.191V233.08C661.567 233.104 661.051 233.188 660.643 233.332C660.259 233.476 659.935 233.668 659.671 233.908C659.407 234.148 659.191 234.436 659.023 234.772C658.855 235.108 658.699 235.492 658.555 235.924L653.371 250.108H651.931L648.511 240.28C648.367 239.848 648.223 239.428 648.079 239.02C647.935 238.588 647.791 238.168 647.647 237.76C647.503 237.328 647.359 236.908 647.215 236.5C647.071 236.908 646.927 237.328 646.783 237.76C646.639 238.168 646.495 238.588 646.351 239.02C646.207 239.428 646.063 239.848 645.919 240.28L642.535 250.108H641.167ZM663.803 248.92C664.547 248.92 665.063 248.74 665.351 248.38C665.639 247.996 665.807 247.48 665.855 246.832C665.903 246.16 665.927 245.392 665.927 244.528V236.32C665.927 235.936 665.939 235.576 665.963 235.24C665.987 234.88 666.023 234.46 666.071 233.98C665.639 234.004 665.207 234.028 664.775 234.052C664.367 234.076 663.947 234.1 663.515 234.124V232.612C664.571 232.612 665.387 232.564 665.963 232.468C666.539 232.372 666.971 232.252 667.259 232.108C667.571 231.964 667.811 231.808 667.979 231.64H669.023V246.184C669.023 246.664 669.011 247.096 668.987 247.48C668.987 247.84 668.951 248.224 668.879 248.632C669.263 248.608 669.635 248.596 669.995 248.596C670.379 248.572 670.763 248.548 671.147 248.524V250H663.803V248.92ZM667.295 228.076C666.791 228.076 666.347 227.872 665.963 227.464C665.579 227.056 665.387 226.552 665.387 225.952C665.387 225.352 665.579 224.848 665.963 224.44C666.371 224.008 666.827 223.792 667.331 223.792C667.883 223.792 668.339 224.008 668.699 224.44C669.083 224.848 669.275 225.352 669.275 225.952C669.275 226.552 669.071 227.056 668.663 227.464C668.279 227.872 667.823 228.076 667.295 228.076ZM681.258 250.576C680.706 250.576 680.142 250.492 679.566 250.324C678.99 250.18 678.45 249.88 677.946 249.424C677.466 248.968 677.082 248.308 676.794 247.444C676.506 246.556 676.362 245.392 676.362 243.952L676.434 233.512L673.662 233.548V232C674.286 231.976 674.922 231.748 675.57 231.316C676.218 230.86 676.794 230.248 677.298 229.48C677.826 228.712 678.186 227.872 678.378 226.96H679.602V232H685.65V233.404L679.602 233.476L679.53 243.484C679.53 244.564 679.614 245.488 679.782 246.256C679.974 247 680.274 247.564 680.682 247.948C681.09 248.332 681.618 248.524 682.266 248.524C682.938 248.524 683.562 248.332 684.138 247.948C684.738 247.564 685.266 247.036 685.722 246.364L686.694 247.156C686.166 247.948 685.638 248.572 685.11 249.028C684.606 249.484 684.114 249.82 683.634 250.036C683.154 250.276 682.71 250.42 682.302 250.468C681.894 250.54 681.546 250.576 681.258 250.576ZM699.968 248.92C700.712 248.92 701.228 248.74 701.516 248.38C701.804 247.996 701.972 247.48 702.02 246.832C702.068 246.16 702.092 245.392 702.092 244.528V239.488C702.092 237.424 701.756 235.876 701.084 234.844C700.436 233.812 699.404 233.308 697.988 233.332C697.1 233.356 696.224 233.572 695.36 233.98C694.52 234.388 693.836 234.916 693.308 235.564V246.184C693.308 246.664 693.296 247.096 693.272 247.48C693.248 247.84 693.2 248.224 693.128 248.632C693.512 248.608 693.884 248.596 694.244 248.596C694.628 248.572 695.012 248.548 695.396 248.524V250H688.052V248.92C688.796 248.92 689.312 248.74 689.6 248.38C689.888 247.996 690.056 247.48 690.104 246.832C690.176 246.16 690.212 245.392 690.212 244.528V227.5C690.212 227.116 690.212 226.756 690.212 226.42C690.236 226.06 690.272 225.64 690.32 225.16C689.888 225.184 689.456 225.208 689.024 225.232C688.616 225.256 688.196 225.28 687.764 225.304V223.792C688.82 223.792 689.636 223.744 690.212 223.648C690.812 223.552 691.256 223.432 691.544 223.288C691.856 223.144 692.096 222.988 692.264 222.82H693.308V233.8C693.836 233.344 694.424 232.948 695.072 232.612C695.744 232.252 696.428 231.964 697.124 231.748C697.844 231.532 698.54 231.424 699.212 231.424C701.3 231.424 702.8 232.084 703.712 233.404C704.648 234.7 705.128 236.728 705.152 239.488L705.188 246.184C705.188 246.664 705.176 247.096 705.152 247.48C705.152 247.84 705.116 248.224 705.044 248.632C705.428 248.608 705.8 248.596 706.16 248.596C706.544 248.572 706.928 248.548 707.312 248.524V250H699.968V248.92ZM728.06 250.36L721.616 231.208C721.208 229.936 720.884 228.94 720.644 228.22C720.404 227.476 720.224 226.84 720.104 226.312C719.768 226.336 719.432 226.348 719.096 226.348C718.76 226.348 718.424 226.36 718.088 226.384V224.8H726.836V225.988C725.444 226.06 724.604 226.372 724.316 226.924C724.052 227.476 724.112 228.472 724.496 229.912C724.904 231.496 725.348 232.924 725.828 234.196C726.308 235.468 726.776 236.836 727.232 238.3C727.568 239.38 727.904 240.376 728.24 241.288C728.6 242.2 728.96 243.22 729.32 244.348H729.392C729.512 243.94 729.632 243.508 729.752 243.052C729.896 242.596 730.04 242.152 730.184 241.72C730.328 241.288 730.46 240.892 730.58 240.532C730.7 240.148 730.796 239.836 730.868 239.596C731.54 237.46 732.2 235.396 732.848 233.404C733.52 231.388 734.108 229.624 734.612 228.112C735.116 226.576 735.464 225.448 735.656 224.728H736.808C737.024 225.52 737.336 226.528 737.744 227.752C738.152 228.976 738.584 230.26 739.04 231.604C739.496 232.948 739.916 234.22 740.3 235.42C740.708 236.62 741.032 237.58 741.272 238.3C741.608 239.38 741.956 240.448 742.316 241.504C742.7 242.56 743.048 243.652 743.36 244.78H743.468C743.684 244.084 743.912 243.34 744.152 242.548C744.416 241.756 744.68 240.952 744.944 240.136C745.568 238.36 746.072 236.872 746.456 235.672C746.864 234.472 747.188 233.476 747.428 232.684C747.692 231.892 747.908 231.208 748.076 230.632C748.268 230.032 748.46 229.456 748.652 228.904C748.796 228.496 748.952 228.064 749.12 227.608C749.312 227.128 749.528 226.684 749.768 226.276C749.288 226.3 748.808 226.324 748.328 226.348C747.848 226.348 747.368 226.36 746.888 226.384V224.8H754.196V225.988C753.38 226.084 752.732 226.264 752.252 226.528C751.796 226.792 751.388 227.284 751.028 228.004C750.668 228.724 750.236 229.828 749.732 231.316C748.628 234.58 747.548 237.796 746.492 240.964C745.46 244.108 744.38 247.24 743.252 250.36H742.172L736.7 234.736C736.484 234.112 736.268 233.5 736.052 232.9C735.86 232.3 735.656 231.7 735.44 231.1C735.248 231.7 735.044 232.3 734.828 232.9C734.636 233.5 734.444 234.1 734.252 234.7L729.104 250.36H728.06ZM755.64 248.812C756.552 248.764 757.176 248.56 757.512 248.2C757.848 247.816 758.028 247.3 758.052 246.652C758.1 245.98 758.124 245.224 758.124 244.384V228.832C758.124 228.352 758.136 227.896 758.16 227.464C758.184 227.008 758.208 226.6 758.232 226.24C757.8 226.264 757.368 226.288 756.936 226.312C756.504 226.336 756.072 226.36 755.64 226.384V224.8C756.912 224.776 758.22 224.764 759.564 224.764C760.908 224.74 762.276 224.728 763.668 224.728C765.996 224.728 767.952 224.992 769.536 225.52C771.12 226.048 772.332 226.828 773.172 227.86C774.012 228.892 774.468 230.176 774.54 231.712C774.588 232.648 774.444 233.632 774.108 234.664C773.796 235.672 773.196 236.632 772.308 237.544C771.444 238.432 770.22 239.152 768.636 239.704C767.052 240.256 765.024 240.532 762.552 240.532C762.456 240.532 762.276 240.532 762.012 240.532C761.748 240.532 761.496 240.52 761.256 240.496V245.716C761.256 246.364 761.244 246.928 761.22 247.408C761.22 247.864 761.196 248.248 761.148 248.56C761.532 248.536 761.904 248.512 762.264 248.488C762.624 248.464 762.984 248.452 763.344 248.452C763.728 248.428 764.1 248.404 764.46 248.38V250H755.64V248.812ZM761.256 239.02C761.712 239.068 762.096 239.104 762.408 239.128C762.744 239.128 763.14 239.128 763.596 239.128C764.964 239.128 766.212 238.864 767.34 238.336C768.468 237.784 769.368 237.004 770.04 235.996C770.712 234.988 771.048 233.788 771.048 232.396C771.048 231.268 770.868 230.308 770.508 229.516C770.148 228.7 769.632 228.052 768.96 227.572C768.312 227.068 767.532 226.708 766.62 226.492C765.708 226.252 764.7 226.132 763.596 226.132C762.756 226.132 762.168 226.312 761.832 226.672C761.52 227.032 761.34 227.536 761.292 228.184C761.268 228.808 761.256 229.552 761.256 230.416V239.02ZM785.396 225.988C784.508 226.012 783.884 226.216 783.524 226.6C783.188 226.984 782.996 227.5 782.948 228.148C782.924 228.796 782.912 229.552 782.912 230.416V245.716C782.912 246.364 782.9 246.928 782.876 247.408C782.876 247.864 782.852 248.248 782.804 248.56C783.236 248.536 783.668 248.512 784.1 248.488C784.532 248.464 784.964 248.44 785.396 248.416V250H777.296V248.812C778.208 248.764 778.832 248.56 779.168 248.2C779.504 247.816 779.684 247.3 779.708 246.652C779.756 245.98 779.78 245.224 779.78 244.384V228.832C779.78 228.352 779.792 227.896 779.816 227.464C779.84 227.008 779.864 226.6 779.888 226.24C779.456 226.264 779.024 226.288 778.592 226.312C778.16 226.336 777.728 226.36 777.296 226.384V224.8H785.396V225.988ZM789.355 250V248.812C790.267 248.764 790.891 248.56 791.227 248.2C791.563 247.816 791.743 247.3 791.767 246.652C791.815 245.98 791.839 245.224 791.839 244.384V228.832C791.839 228.352 791.851 227.896 791.875 227.464C791.899 227.008 791.923 226.6 791.947 226.24C791.515 226.264 791.083 226.288 790.651 226.312C790.219 226.336 789.787 226.36 789.355 226.384V224.8H797.455V225.988C796.567 226.012 795.943 226.216 795.583 226.6C795.247 226.984 795.055 227.5 795.007 228.148C794.983 228.796 794.971 229.552 794.971 230.416V245.86C794.971 246.508 794.959 247.06 794.935 247.516C794.935 247.972 794.911 248.356 794.863 248.668L801.595 248.56C803.107 248.536 804.247 248.056 805.015 247.12C805.807 246.184 806.203 244.66 806.203 242.548H807.427L807.211 250H789.355ZM809.772 248.92C810.516 248.92 811.032 248.74 811.32 248.38C811.608 247.996 811.776 247.48 811.824 246.832C811.872 246.16 811.896 245.392 811.896 244.528V236.32C811.896 235.936 811.908 235.576 811.932 235.24C811.956 234.88 811.992 234.46 812.04 233.98C811.608 234.004 811.176 234.028 810.744 234.052C810.336 234.076 809.916 234.1 809.484 234.124V232.612C810.54 232.612 811.356 232.564 811.932 232.468C812.508 232.372 812.94 232.252 813.228 232.108C813.54 231.964 813.78 231.808 813.948 231.64H814.992V246.184C814.992 246.664 814.98 247.096 814.956 247.48C814.956 247.84 814.92 248.224 814.848 248.632C815.232 248.608 815.604 248.596 815.964 248.596C816.348 248.572 816.732 248.548 817.116 248.524V250H809.772V248.92ZM813.264 228.076C812.76 228.076 812.316 227.872 811.932 227.464C811.548 227.056 811.356 226.552 811.356 225.952C811.356 225.352 811.548 224.848 811.932 224.44C812.34 224.008 812.796 223.792 813.3 223.792C813.852 223.792 814.308 224.008 814.668 224.44C815.052 224.848 815.244 225.352 815.244 225.952C815.244 226.552 815.04 227.056 814.632 227.464C814.248 227.872 813.792 228.076 813.264 228.076ZM821.611 227.5C821.611 227.116 821.611 226.756 821.611 226.42C821.635 226.06 821.671 225.64 821.719 225.16C821.287 225.184 820.855 225.208 820.423 225.232C820.015 225.256 819.595 225.28 819.163 225.304V223.792C820.219 223.792 821.035 223.744 821.611 223.648C822.211 223.552 822.655 223.432 822.943 223.288C823.255 223.144 823.495 222.988 823.663 222.82H824.707V233.548C825.379 232.876 826.171 232.36 827.083 232C828.019 231.616 829.039 231.424 830.143 231.424C831.679 231.424 833.059 231.796 834.283 232.54C835.531 233.284 836.515 234.34 837.235 235.708C837.955 237.076 838.315 238.696 838.315 240.568C838.315 242.608 837.871 244.384 836.983 245.896C836.095 247.384 834.943 248.536 833.527 249.352C832.111 250.168 830.587 250.576 828.955 250.576C828.139 250.576 827.239 250.42 826.255 250.108C825.295 249.82 824.431 249.244 823.663 248.38L822.799 250H821.539L821.611 227.5ZM824.707 244.348C824.707 245.62 824.911 246.604 825.319 247.3C825.727 247.972 826.255 248.44 826.903 248.704C827.551 248.968 828.235 249.1 828.955 249.1C830.107 249.1 831.103 248.776 831.943 248.128C832.783 247.48 833.431 246.592 833.887 245.464C834.367 244.312 834.607 242.98 834.607 241.468C834.607 239.836 834.403 238.408 833.995 237.184C833.587 235.936 832.975 234.964 832.159 234.268C831.343 233.548 830.311 233.188 829.063 233.188C828.271 233.188 827.479 233.38 826.687 233.764C825.919 234.124 825.259 234.616 824.707 235.24V244.348ZM839.618 259.756L838.718 258.928C839.462 257.944 840.122 256.9 840.698 255.796C841.298 254.716 841.814 253.588 842.246 252.412C842.678 251.26 843.026 250.06 843.29 248.812C843.578 247.564 843.794 246.292 843.938 244.996C844.082 243.676 844.154 242.344 844.154 241C844.154 239.656 844.082 238.348 843.938 237.076C843.794 235.78 843.578 234.532 843.29 233.332C843.026 232.132 842.678 230.968 842.246 229.84C841.814 228.688 841.298 227.584 840.698 226.528C840.122 225.472 839.462 224.452 838.718 223.468L839.618 222.64C840.506 223.456 841.43 224.5 842.39 225.772C843.35 227.02 844.238 228.448 845.054 230.056C845.87 231.664 846.53 233.392 847.034 235.24C847.538 237.088 847.79 239.008 847.79 241C847.79 242.992 847.538 244.936 847.034 246.832C846.53 248.728 845.87 250.504 845.054 252.16C844.238 253.816 843.35 255.292 842.39 256.588C841.43 257.884 840.506 258.94 839.618 259.756Z" fill="black"/>
</g>
<defs>
<clipPath id="clip0_10_48">
<rect width="1584" height="322" fill="white"/>
</clipPath>
<clipPath id="clip1_10_48">
<rect width="100" height="100" fill="white" transform="translate(190 183)"/>
</clipPath>
</defs>
</svg>
